<svg xmlns="http://www.w3.org/2000/svg" viewBox="0 0 174 164"><defs><style>.a{fill:#563d7c;}.b{fill:#fff;}</style></defs><path class="a" d="M40,120.27a12.12,12.12,0,0,0,12.12,12.12h69.76A12.12,12.12,0,0,0,134,120.27V50.51a12.12,12.12,0,0,0-12.12-12.12H52.12A12.12,12.12,0,0,0,40,50.51Z"/><path class="b" d="M79,79.58V66.27H90.7a18.25,18.25,0,0,1,3.23.28,8.06,8.06,0,0,1,2.75,1,5.31,5.31,0,0,1,1.91,2,6.62,6.62,0,0,1,.72,3.27q0,3.59-2.15,5.18a9,9,0,0,1-5.5,1.59Zm-12.51-23v56.91H94a29.1,29.1,0,0,0,7.45-1,19.93,19.93,0,0,0,6.46-2.95,14.52,14.52,0,0,0,4.5-5.14,17.4,17.4,0,0,0-.92-16.58,13.68,13.68,0,0,0-7.85-5.3,14.19,14.19,0,0,0,5.78-4.7,12.47,12.47,0,0,0,2-7.17A15.27,15.27,0,0,0,110.1,64a10.94,10.94,0,0,0-3.71-4.34,16,16,0,0,0-5.74-2.35,35.45,35.45,0,0,0-7.41-.72ZM79,103.73V88.11H92.61A10.55,10.55,0,0,1,99.15,90q2.47,1.87,2.47,6.26a7.82,7.82,0,0,1-.76,3.67,6,6,0,0,1-2,2.27,8.61,8.61,0,0,1-2.95,1.2,16.7,16.7,0,0,1-3.51.36Z"/></svg>