<svg xmlns="http://www.w3.org/2000/svg" viewBox="0 0 184 164"><defs><style>.a{fill:#543729;}.b{fill:#00acee;}.c{fill:#2baf2b;}.d{fill:#ffcc2f;}.e{fill:#cecece;}.f{fill:#ef5734;}.g{fill:#fff;}</style></defs><path class="a" d="M142.07,83.59c-5.31-5.14-32.12-8.36-40.56-9.29a24.78,24.78,0,0,0,1.06-3,33.8,33.8,0,0,1,3.67-1.37c.16.47.89,2.23,1.32,3.07,17,.47,17.85-12.61,18.54-16.2s.64-6.89,6.47-13.08c-8.68-2.53-21.16,3.92-25.34,13.52a26.07,26.07,0,0,0-4.7-1.3c-1.11-4.5-6.92-17-22.17-17C61,39,40,54.88,40,81.84c0,22.66,15.47,42.47,24.21,42.47a8.61,8.61,0,0,0,7.87-5.44c.65,1.75,2.63,7.22,3.28,8.61,1,2.06,5.42,3.83,7.36,1.7,2.51,1.39,7.1,2.23,9.56-1.49,4.82,1.06,9.09-1.86,9.19-5.31,2.37-.13,3.53-3.45,3-6.1-.38-2-4.45-8.94-6-11.36,3.19,2.56,11.11,3.28,12.07,0,5.07,4,13,1.89,13.59-1.35,6.16,1.6,13.22-1.91,12.06-6.17,9.9-.68,8.62-11.21,5.85-13.88Z"/><path class="b" d="M114.52,61.15c2.12-4.25,4.81-8.85,8.19-11.68-3.73,1.5-7.43,6-9.56,10.78a33.52,33.52,0,0,0-3.43-1.89c3-6.47,10.08-11.87,17.84-12.3-5.2,4.71-3.36,14.52-7.62,19.71a56,56,0,0,0-5.46-4.61ZM111.15,68a17.2,17.2,0,0,1,.18-2,18,18,0,0,0-3.12-.41,11.73,11.73,0,0,0,1.06,4.52,16.27,16.27,0,0,0,8.49-2.36A28.38,28.38,0,0,0,112,66.19c-.2.42-.71,1.52-.9,1.84Z"/><path class="c" d="M96.48,101.49h0c-.5-1.06-1.06-2.39-1.67-4.1,2.47,3.6,10.23,1.74,9.81-1.49,3.79,2.86,11.6-.48,9.82-4.48,3.8,1.77,8.13-1.79,7.17-3.34,6.48,1.25,12.68,2.5,14.63,3-1.3,2.12-4.25,3.6-8.69,2.57,2.4,3.27-2.26,7.2-8.75,5,1.43,3.19-4.35,6.11-10.93,2.75.08,3.19-8.16,3.58-11.4,0Zm12.85-16.24c7.52.57,20,1.7,27.61,2.77-.49-2.51-1.82-3.19-6-4.34-4.49.48-15.93,1.6-21.65,1.57Z"/><path class="d" d="M104.63,95.92c3.79,2.86,11.6-.48,9.82-4.48,3.8,1.77,8.13-1.79,7.17-3.34-7.66-1.48-15.69-3-17.51-3.19,1.06.06,2.94.18,5.22.36,5.76,0,17.16-1.06,21.65-1.57a218.22,218.22,0,0,0-32.4-5.17,14.74,14.74,0,0,1-2.87,3.12c-4.49,9.49-12.61,15.81-21.62,15.81A29,29,0,0,1,65.26,96c-2,2.14-10.76,3.8-17.89.33a36.19,36.19,0,0,0,33.12,22c12.17,0,17.56-12.42,16.38-15.7-.29-.8-1.42-3.44-2.06-5.15,2.47,3.6,10.23,1.74,9.81-1.49Z"/><path class="e" d="M97.25,70.93a35.24,35.24,0,0,1,8.32-3.68c-.05-.39-.1-.79-.13-1.19-2.33.55-6.7,2.43-9.21-.15,5.31,1.59,7.93-1.42,11.82-1.42a25,25,0,0,1,8.23,1.67c-2.12-1.93-9-7.78-17.48-7.8a12.23,12.23,0,0,0-1.56,12.57Z"/><path class="f" d="M65.26,95.92a29,29,0,0,0,8.85,1.5c9,0,17.13-6.31,21.62-15.81-3.32,2.77-9.09,5.14-18.05,5.14,8-1.82,14.93-5.82,18.44-11.68-2.52-4-5.19-12.61,1.59-19.5a18.33,18.33,0,0,0-17.37-12.2c-19.62,0-35.89,16.43-35.89,38.44A36.77,36.77,0,0,0,47.38,96.3C54.5,99.77,63.21,98.11,65.26,95.92Z"/><path class="d" d="M71.15,62.4a9.07,9.07,0,1,0,9.07-9.07,9.07,9.07,0,0,0-9.07,9.07Z"/><path class="a" d="M74.79,62.4A5.43,5.43,0,1,0,80.21,57a5.43,5.43,0,0,0-5.43,5.43Z"/><ellipse class="g" cx="80.21" cy="60" rx="3.16" ry="1.96"/></svg>