<svg xmlns="http://www.w3.org/2000/svg" xmlns:xlink="http://www.w3.org/1999/xlink" viewBox="0 0 170 164"><defs><style>.a{fill:#fff;}.b{mask:url(#a);}.c{fill:#e21708;}.d{fill:#fa524a;}.d,.e{fill-opacity:0.3;}.e{fill:#ae0e10;}</style><mask id="a" x="26" y="26.56" width="104.97" height="106.7" maskUnits="userSpaceOnUse"><path class="a" d="M131,26.56c-1.38,28.09-5.48,54-16.43,78.48-8.4,18.75-27.6,28.52-49.26,25.77-17.8-2.26-34.12-17.48-38.1-35.54-4.43-20.14,3.89-41.22,21.76-50.39,25.22-12.95,52.8-16.63,82-18.33"/></mask></defs><path class="a" d="M131,26.56c-1.38,28.09-5.48,54-16.43,78.48-8.4,18.75-27.6,28.52-49.26,25.77-17.8-2.26-34.12-17.48-38.1-35.54-4.43-20.14,3.89-41.22,21.76-50.39,25.22-12.95,52.8-16.63,82-18.33"/><g class="b"><path class="c" d="M72.69,57.78S70.27,71.18,69.31,78c-4.9-3.82-14.59-10.76-14.59-10.76s7.6,10.23,11.2,14.8c-6.82.77-20.5,2.9-20.5,2.9s14,2.25,20.5,3c-3.78,4.78-11.23,14.48-11.23,14.48s10.13-7,14.68-10.5c.93,6.51,3.33,20.37,3.33,20.37s2.2-13.85,3-20.6c4.5,3.51,14,10.83,14,10.83S83.1,92.58,79.48,87.9c6.58-.77,20-3,20-3S85.93,82.75,79.53,82C82.84,77.52,89.78,67.2,89.78,67.2s-9.73,7.55-14.07,11c-.8-6.71-3-20.44-3-20.44m58.27-31c-1.38,28.09-5.48,54-16.43,78.48C106.14,124,86.94,133.74,65.28,131c-17.8-2.26-34.12-17.48-38.1-35.54-4.43-20.14,3.89-41.22,21.76-50.39,25.22-12.95,52.8-16.63,82-18.33"/><path class="d" d="M28.54,69.19a44.11,44.11,0,0,1,6.95-13c1.14-1.4,2.41-2.81,3.81-4.25a40.21,40.21,0,0,1,4-3.37c1.28-.94,2.7-1.85,4.21-2.75q.72-.41,1.46-.79a136.53,136.53,0,0,1,18.72-7.88c16.52-5.58,33.9-8.2,52-9.67,4.46-.34,8.31-.56,11.33-.77C100.22,33.38,83.88,39.9,64,48.6s-36.88,27.6-37.78,33A67.64,67.64,0,0,1,28.54,69.19Z"/><path class="e" d="M65.81,132.87a45,45,0,0,1-6-1.16,48.22,48.22,0,0,1-21.52-13.49A46,46,0,0,1,27.18,97.27,50.08,50.08,0,0,1,26,86.34c.22,32.82,38.57,37.89,48.82,37.89,16.28,0,16.08-3.24,41.36-21q-.8,1.93-1.65,3.83a43.58,43.58,0,0,1-30.94,25,51.57,51.57,0,0,1-11.17,1.2A56.63,56.63,0,0,1,65.81,132.87Z"/></g></svg>