<svg xmlns="http://www.w3.org/2000/svg" viewBox="0 0 150 164"><defs><style>.a{fill:#131313;}.b{fill:#1572b6;}.c{fill:#33a9dc;}.d{fill:#fff;}.e{fill:#ebebeb;}</style></defs><title>css</title><path class="a" d="M99.39,19H92.25l7.42,8.05v3.83H84.39V26.42h7.42l-7.42-8.06V14.53h15V19Zm-18,0H74.22l7.42,8.05v3.83H66.35V26.42h7.42l-7.42-8.06V14.53h15V19ZM63.5,19.2H55.8v7h7.7v4.68H50.32V14.53H63.5V19.2Z"/><path class="b" d="M39.83,126.17,32,38.39h86l-7.83,87.77-35.22,9.76Z"/><path class="c" d="M75,128.46l28.46-7.89,6.7-75H75Z"/><path class="d" d="M75,77.37H89.25l1-11H75V55.58h27l-.26,2.89L99.09,88.14H75Z"/><path class="e" d="M75.06,105.33h0l-12-3.24-.77-8.59H51.45L53,110.42,75,116.55h0Z"/><path class="d" d="M88.33,87.68,87,102.1l-12,3.24v11.2l22.07-6.12.16-1.82,1.87-20.93Z"/><path class="e" d="M75,55.58V66.34H49l-.22-2.42-.49-5.46-.26-2.89Z"/><path class="e" d="M75,77.37V88.14H63.16l-.22-2.42-.49-5.46-.26-2.89Z"/></svg>