<svg xmlns="http://www.w3.org/2000/svg" viewBox="0 0 178 164"><defs><style>.a{fill:#de4c36;}</style></defs><path class="a" d="M136.15,80.93,93.36,38.14a6.31,6.31,0,0,0-8.92,0L75.55,47,86.82,58.3a7.49,7.49,0,0,1,9.49,9.55l10.86,10.86a7.5,7.5,0,1,1-4.5,4.23L92.55,72.82V99.48a7.59,7.59,0,0,1,2,1.42,7.5,7.5,0,1,1-8.16-1.64V72.35a7.42,7.42,0,0,1-2.46-1.64A7.51,7.51,0,0,1,82.3,62.5L71.19,51.39,41.85,80.73a6.31,6.31,0,0,0,0,8.93l42.79,42.79a6.31,6.31,0,0,0,8.93,0l42.59-42.59a6.32,6.32,0,0,0,0-8.93"/></svg>