<svg xmlns="http://www.w3.org/2000/svg" viewBox="0 0 154 164"><defs><style>.a{fill:#fba919;}.b{fill:#e78724;}.c{fill:#fdc168;}.d{fill:#fff;}.e{fill:#c9c9c9;}.f{fill:#463014;}</style></defs><path class="a" d="M44.78,58s1.71,6.59,2,8.79-4.39,7.08-4.39,9.52a9.52,9.52,0,0,0,6.35,9c5.37,2.2,6.1,7.81,6.1,11.23s-2,10-2,10-1.22,16.35,5.37,19.28,5.13,2.93,6.59,2.93,12.2,4.39,18.55,2.69,8.05-3.66,8.05-3.66,6.35.49,8.3-5.13,3.17-17.33,2.44-22.7-1.71-12.45,2.68-14.89,9-5.37,8.3-7.81-4.64-5.86-4.64-5.86-1-6.1-.24-7.57,5.13-5.13,2.68-7.81-6.83-2.68-6.83-2.68l-5.61.49s-9.52-8.54-22-8.05a33.05,33.05,0,0,0-20.26,8.05s-4.15-1.46-7.81,0S44,53.83,44.78,58Z"/><path class="b" d="M67.08,94.32S62.25,101.71,58.7,107c-.55.81,3.55.87,3.55.87l4.83-13.5Z"/><path class="b" d="M69.38,79s-1.46,3.63-2.26,5.56C66.26,86.66,63,87.7,63,87.7s1.71-1.8,1.71-6.35c0-1.91,2.46-2.67,2.46-2.67l2.25.31Z"/><path class="b" d="M67.91,81.06s-3,3.55-8.53,1.56-6.11-9.1-6.11-11.09,10.52,2,11.94,2.84,4.12,4.26,2.7,6.68Z"/><path class="b" d="M47,43.09s5.12-1,8.53,1.71a15.59,15.59,0,0,1,4.41,4.83l-5.75,4.56a7.38,7.38,0,0,1-3.63-5c-.85-3.7-.28-5.4-3.55-6.11Z"/><path class="b" d="M66.42,70.79a11.89,11.89,0,0,0-8.73-4.72c-4.94-.39-7.29,1.36-7.29,1.36s8.09.34,10.43,3.41c4.34,5.7,10.68,6.17,11.69,4.91a5.4,5.4,0,0,1-3.84-1.83,21.22,21.22,0,0,1-2.26-3.14Z"/><path class="b" d="M52.75,81.85s-9-3.09-7.27-6.21.35-4.83.35-4.83-5,3.74-3.74,7.72c.79,2.44,2.1,4.21,9.34,7.6,3.47,6.45.72,18,.88,18.1S57.18,102,56.87,91.1c-.1-3.33-.36-7.88-4.11-9.26Z"/><path class="b" d="M64.52,48.65c-3.77,1.91-8.93,4.58-8.93,4.58l2,1c-.19.31-.29.5-.29.5l2.08.95s5.09,3.69,8.21,6.06a52.89,52.89,0,0,0-4.09-8.23,5.47,5.47,0,0,1,1-4.87Z"/><path class="b" d="M77,126.64c-11.58,0-15.5-5.88-15.5-5.88l1.81,4.41C64,127.07,71.32,133,77,133"/><path class="b" d="M62.8,116.79s1.07,6.51,5.33,6.51c3.62,0,4.69-5.5,4.69-6.63l-10,.13Z"/><path class="b" d="M55.71,107a47,47,0,0,0,2.13-9.1,102.39,102.39,0,0,0,.32-11.32S57,91,56,91.68s-2.84,5.54-2.84,5.54-1,7.19-1.46,9.61c1.3.26,2.4-.51,4,.14Z"/><path class="b" d="M45.41,78.46s2.42-.85,3.13-6.11a23.74,23.74,0,0,0-.85-9.81s.14,7.25-.71,8.67-1.56,1.85-2.56,3.7.43,3,1,3.55Z"/><path class="c" d="M48.3,44.33,47.8,44c-1.45,0,.49.31.49.31Z"/><path class="a" d="M66.49,47.09A5.63,5.63,0,0,1,63.08,45a11.8,11.8,0,0,0-9.49-5.16,42.73,42.73,0,0,0-10.22,1.36L47.8,44c.47,0,1.29,0,2.65,0,5.57.18,6.42,5.69,6.42,5.69L76.48,47"/><path class="d" d="M68.38,77.5a7.71,7.71,0,0,1-6.73,1.8c-4.08-.85-6.54-2.65-6.73-5.78s.85-4.36.85-4.36,4.55,1.42,6.73,3.32,3.79,4.93,5.88,5Z"/><path class="e" d="M65.17,76.55a7.26,7.26,0,0,1-4.87.2,5.45,5.45,0,0,1-3.59-4.62s-2.07,6.06,3.73,7.23a8.48,8.48,0,0,0,7.39-1.76l-2.65-1Z"/><path class="f" d="M66.81,45.8c-.25-5.2,4-9.34,5.49-9.52.08.88-.08,4.32,1.39,5.37.43-2.81,1.88-5.9,7.62-7.93A9.62,9.62,0,0,0,81.66,41c3.92-3.56,6.56-3,6.56-3s-2.72,4.7-1.66,7.78c-7.87-.62-19.71.84-19.75,0Z"/><path class="f" d="M50.13,53.72c-1.88-1.56-.48-3-.63-4.77A5.91,5.91,0,0,0,49,46.63c-1.73-2.73-5.8-3.56-5.84-3.56l-1.91-.37,1.27-1.48A13.48,13.48,0,0,1,56,38.66c5.63,1.82,9.79,8,9.95,8.22L63.08,48.2c0-.05-3.33-5.84-8.16-7.4a12.36,12.36,0,0,0-9,.72A10.58,10.58,0,0,1,51,45.41a7.35,7.35,0,0,1,.81,3.35c.13,1.55.25,3,1.4,4l-3,1Z"/><path class="f" d="M45.12,76.46s2.37-2.93,3.07-8.64a21.53,21.53,0,0,0-1-8.39,34.29,34.29,0,0,1-.92,8.39s-.72,7.79-1.15,8.64Z"/><path class="f" d="M57.59,50.76s-.76-3.32-2.86-5a7.43,7.43,0,0,0-6.62-1.09l-.53-1.62a9.74,9.74,0,0,1,8.12,1.32C59.54,47.07,60,49.51,60,49.78l-2.45,1Z"/><path class="f" d="M52.54,74.35a6.15,6.15,0,0,1-1-3.73,2.81,2.81,0,0,1,1.36-2.31c1.48-.65,2.14,1,2.14,1s-2.09.52-2.48,5Z"/><path class="f" d="M66.17,77.06l.08.15a6.7,6.7,0,0,1-7.84,0c-2.12-1.58-1.92-5.49-1.27-7.14a12.77,12.77,0,0,1,4.32,1.88c-1.52-1.35-2.84-2.35-2.84-2.37L56.9,69,53.55,67.9c0,.26-1.26,6,2.26,9.88,1.56,1.73,8.89,5.6,12.36-1l-2,.3Z"/><path class="f" d="M65.8,77.49c2.18,3.32,7.68,1.42,7.58-2.08a5.61,5.61,0,0,1-6.92-1.71c-1.89-2.18-8-8.19-16.2-6.19C56,68.76,63.48,74,65.8,77.49Z"/><path class="f" d="M49.5,86.85a6.54,6.54,0,0,1,2.37,5.08A107.54,107.54,0,0,1,51,105c1.07.69,1.81.84,2.88,1.55A130.16,130.16,0,0,0,54.63,91a8.15,8.15,0,0,0-3.72-6.66c-.53-.3-1.08-.6-1.64-.9-2.89-1.56-5.89-3.18-5.89-5.95A3.81,3.81,0,0,1,45.12,74l.1-.08A5.16,5.16,0,0,0,46.87,72c1.08-2.43,1.26-8.61,0-10.18-.63-.78-2.3-3.41-1.82-5.18a2.37,2.37,0,0,1,1.3-1.53,6.51,6.51,0,0,1,2.94-.56A23.11,23.11,0,0,1,55.7,55.7c4.89,1.55,10.79,6,12.48,7.35l.08.06,1.08.75-.68-1.13c0-.07-4.33-7.12-12-9.7a24.35,24.35,0,0,0-7.3-1.35,9.47,9.47,0,0,0-4.32.89,5.2,5.2,0,0,0-2.75,3.31c-1,3.55,2.18,7.5,2.29,7.63a15.42,15.42,0,0,1-.33,7.33,2.94,2.94,0,0,1-.84.85L43,72a6.25,6.25,0,0,0-3,5.42c0,4.31,4.37,6.64,7.88,8.52.58.31,1.13.6,1.62.89Z"/><path class="f" d="M50.13,53.72c-1.88-1.56-.48-3-.63-4.77A5.91,5.91,0,0,0,49,46.63c-1.73-2.73-5.8-3.56-5.84-3.56l-1.91-.37,1.27-1.48A13.48,13.48,0,0,1,56,38.66c5.63,1.82,9.79,8,9.95,8.22L63.08,48.2c0-.05-3.33-5.84-8.16-7.4a12.36,12.36,0,0,0-9,.72A10.58,10.58,0,0,1,51,45.41a7.35,7.35,0,0,1,.81,3.35c.13,1.55.25,3,1.4,4l-3,1Z"/><path class="f" d="M50.07,54l-.12-.1c-1.39-1.16-1.15-2.29-.91-3.39A5.32,5.32,0,0,0,49.22,49a5.81,5.81,0,0,0-.42-2.19c-1.64-2.6-5.62-3.43-5.66-3.44l-2.39-.47L42.33,41a13.32,13.32,0,0,1,9-3.4,15.27,15.27,0,0,1,4.69.76c5.87,1.89,10.06,8.28,10.1,8.34l.17.27L63,48.57l-.13-.21c-.36-.61-3.52-5.83-8-7.28a11.19,11.19,0,0,0-3.44-.53,12.55,12.55,0,0,0-4.81,1,10.49,10.49,0,0,1,4.61,3.74,7.56,7.56,0,0,1,.85,3.47c.13,1.5.24,2.91,1.29,3.78l.4.33L50.07,54Z"/><path class="f" d="M57.59,50.76s-.76-3.32-2.86-5a7.43,7.43,0,0,0-6.62-1.09l-.53-1.62a9.74,9.74,0,0,1,8.12,1.32C59.54,47.07,60,49.51,60,49.78l-2.45,1Z"/><path class="f" d="M57.38,51.15l-.07-.33s-.75-3.23-2.76-4.83a6.41,6.41,0,0,0-4.1-1.37,7.54,7.54,0,0,0-2.24.33l-.27.09-.7-2.16.27-.09a10,10,0,0,1,8.37,1.36c3.93,2.76,4.41,5.32,4.45,5.6l0,.22-3,1.18Zm-6.93-7.09a7.07,7.07,0,0,1,4.46,1.5,10,10,0,0,1,2.88,4.83l1.93-.77c-.18-.68-.95-2.73-4.17-5A9,9,0,0,0,50.27,43a9.65,9.65,0,0,0-2.32.28l.35,1.08a8.46,8.46,0,0,1,2.15-.28Z"/><path class="f" d="M68,121.74h0a3.59,3.59,0,0,1-2.29-.82A10.1,10.1,0,0,1,63,117.38a1.34,1.34,0,0,1,.17-1.54,2.49,2.49,0,0,1,1.85-.56h5.73a2.37,2.37,0,0,1,1.73.52,1.17,1.17,0,0,1,.17,1.3,14.19,14.19,0,0,1-2.54,3.77,2.89,2.89,0,0,1-2.15.87Z"/><path class="f" d="M68.84,77.68l-3-.2a15.85,15.85,0,0,1,1.28,3.13c.57,2-.52,4.92-.52,4.92s4-4.58,2.27-7.86Z"/><path class="f" d="M65.05,129.74c-10.79-.83-14.59-11-14.59-13.15h2.82c0,.92,2.88,9.64,12,10.34l-.22,2.81Z"/><path class="d" d="M62,111.47a7.08,7.08,0,0,1,0-2.81,12.83,12.83,0,0,0-3.4-1.2c-.9-.57-5.52.59-8.88-3.47-4.2-5.08-3.32-8.11-3.32-8.11-1.08,1.2-2.12.74-3.76,6.32s.77,9.47,5.27,13.38a14.32,14.32,0,0,0,7.72,2.9c-.87-.87,1.48-1,3.1-1.56a4.33,4.33,0,0,1,1.06-3.59A5.5,5.5,0,0,1,62,112l.12-.29a2.5,2.5,0,0,1-.07-.27Z"/><path class="e" d="M58.75,116.87c-.09-.27-.16-.55-.23-.83s-.45-1.18,0-.18a3.68,3.68,0,0,1-.25-.78c-7.29,0-13.63-5-12.41-15.54-1-1.27-2.29,2.56-2.29,2.56s-3.65,10.6,5.78,14.71c3.14,1.37,5.92,2.35,6.57,2a3.3,3.3,0,0,0,3.06-1.3c-.09-.19-.17-.38-.23-.58Z"/><path class="f" d="M61.89,109.94a5.86,5.86,0,0,1,.62-2.61l.1-.17a24.81,24.81,0,0,1-8.79-1.39c-3-1.21-6.81-5.35-7.46-10.21,0,0-5.7,4.4-4,13.8,1.57,8.83,9,11.71,17.39,12.2,0-.06-.95-2-.65-3.23-4.79.35-10.14-1.5-12.72-5.75-2.37-3.89-1.7-10.54-.73-11.51,2.37,7.48,10.91,9,16.26,8.87Z"/><path class="f" d="M62.77,104.59a27.79,27.79,0,0,1-4.62,8.06s4.26-.19,4.5-.95a88,88,0,0,0,5.26-19.24c-1.33,2.18-5,11.75-5.14,12.13Z"/><path class="b" d="M86.92,94.32s4.83,7.39,8.38,12.64c.55.81-3.55.87-3.55.87l-4.83-13.5Z"/><path class="b" d="M84.62,79s1.46,3.63,2.25,5.56C87.74,86.66,91,87.7,91,87.7s-1.71-1.8-1.71-6.35c0-1.91-2.46-2.67-2.46-2.67L84.62,79Z"/><path class="b" d="M86.09,81.06s3,3.55,8.53,1.56,6.11-9.1,6.11-11.09-10.52,2-11.94,2.84-4.12,4.26-2.7,6.68Z"/><path class="b" d="M107,43.09s-5.12-1-8.53,1.71a15.62,15.62,0,0,0-4.41,4.83l5.75,4.56a7.38,7.38,0,0,0,3.63-5c.85-3.7.28-5.4,3.55-6.11Z"/><path class="b" d="M87.58,70.79a11.89,11.89,0,0,1,8.73-4.72c4.94-.39,7.29,1.36,7.29,1.36s-8.09.34-10.43,3.41C88.83,76.55,82.5,77,81.48,75.76a5.4,5.4,0,0,0,3.84-1.83,21.24,21.24,0,0,0,2.26-3.14Z"/><path class="b" d="M101.25,81.85s9-3.09,7.27-6.21-.35-4.83-.35-4.83,5,3.74,3.74,7.72c-.79,2.44-2.1,4.21-9.34,7.6-3.47,6.45-.72,18-.88,18.1S96.82,102,97.13,91.1c.1-3.33.36-7.88,4.11-9.26Z"/><path class="b" d="M89.48,48.65c3.76,1.91,8.92,4.58,8.92,4.58l-2,1c.19.31.29.5.29.5l-2.08.95s-5.09,3.69-8.21,6.06a52.81,52.81,0,0,1,4.09-8.23,5.46,5.46,0,0,0-1-4.87Z"/><path class="b" d="M77,126.64c11.57,0,15.49-5.88,15.49-5.88l-1.81,4.41C90,127.07,82.68,133,77,133"/><path class="b" d="M91.2,116.79s-1.07,6.51-5.33,6.51c-3.62,0-4.69-5.5-4.69-6.63l10,.13Z"/><path class="b" d="M98.29,107a47,47,0,0,1-2.13-9.1,102.26,102.26,0,0,1-.32-11.32S97,91,98,91.68s2.84,5.54,2.84,5.54,1,7.19,1.46,9.61c-1.3.26-2.4-.51-4,.14Z"/><path class="b" d="M108.59,78.46s-2.42-.85-3.13-6.11a23.74,23.74,0,0,1,.85-9.81s-.14,7.25.71,8.67,1.56,1.85,2.56,3.7-.43,3-1,3.55Z"/><path class="c" d="M105.71,44.33l.49-.31c1.45,0-.49.31-.49.31Z"/><path class="a" d="M87.51,47.09A5.63,5.63,0,0,0,90.92,45a11.8,11.8,0,0,1,9.5-5.16,42.73,42.73,0,0,1,10.22,1.36L106.2,44c-.47,0-1.29,0-2.65,0-5.56.18-6.42,5.69-6.42,5.69L77.52,47"/><path class="d" d="M85.62,77.5a7.71,7.71,0,0,0,6.73,1.8c4.08-.85,6.54-2.65,6.73-5.78s-.85-4.36-.85-4.36-4.55,1.42-6.73,3.32-3.79,4.93-5.88,5Z"/><path class="e" d="M88.83,76.55a7.26,7.26,0,0,0,4.87.2,5.45,5.45,0,0,0,3.59-4.62s2.06,6.06-3.73,7.23a8.48,8.48,0,0,1-7.39-1.76l2.65-1Z"/><path class="f" d="M103.87,53.72c1.88-1.56.48-3,.63-4.77a5.88,5.88,0,0,1,.46-2.32c1.73-2.73,5.8-3.56,5.84-3.56l1.91-.37-1.27-1.48A13.48,13.48,0,0,0,98,38.66c-5.63,1.82-9.79,8-9.95,8.22l2.82,1.33c0-.05,3.33-5.84,8.16-7.4a12.35,12.35,0,0,1,9,.72A10.59,10.59,0,0,0,103,45.41a7.35,7.35,0,0,0-.81,3.35c-.13,1.55-.25,3-1.4,4l3,1Z"/><path class="f" d="M108.88,76.46s-2.36-2.93-3.06-8.64a21.53,21.53,0,0,1,1-8.39,34.27,34.27,0,0,0,.92,8.39s.72,7.79,1.15,8.64Z"/><path class="f" d="M96.41,50.76s.76-3.32,2.86-5a7.43,7.43,0,0,1,6.61-1.09l.53-1.62a9.74,9.74,0,0,0-8.12,1.32C94.46,47.07,94,49.51,94,49.78l2.46,1Z"/><path class="f" d="M101.46,74.35a6.14,6.14,0,0,0,1-3.73,2.8,2.8,0,0,0-1.36-2.31c-1.48-.65-2.14,1-2.14,1s2.09.52,2.48,5Z"/><path class="f" d="M87.83,77.06l-.08.15a6.7,6.7,0,0,0,7.83,0c2.12-1.58,1.92-5.49,1.27-7.14a12.78,12.78,0,0,0-4.32,1.88c1.52-1.35,2.84-2.35,2.84-2.37L97.1,69l3.35-1.15c0,.26,1.26,6-2.26,9.88-1.56,1.73-8.89,5.6-12.36-1l2,.3Z"/><path class="f" d="M88.2,77.49C86,80.8,80.52,78.91,80.62,75.4a5.61,5.61,0,0,0,6.92-1.71c1.89-2.18,8-8.19,16.2-6.19C98,68.76,90.52,74,88.2,77.49Z"/><path class="f" d="M104.5,86.85a6.53,6.53,0,0,0-2.37,5.08A107.1,107.1,0,0,0,103,105c-1.07.69-1.81.84-2.88,1.55A129.91,129.91,0,0,1,99.37,91a8.15,8.15,0,0,1,3.72-6.66c.53-.3,1.08-.6,1.64-.9,2.89-1.56,5.89-3.18,5.89-5.95A3.81,3.81,0,0,0,108.88,74l-.09-.08A5.15,5.15,0,0,1,107.13,72c-1.08-2.43-1.26-8.61,0-10.18.63-.78,2.31-3.41,1.82-5.18a2.37,2.37,0,0,0-1.3-1.53,6.51,6.51,0,0,0-2.94-.56A23.1,23.1,0,0,0,98.3,55.7c-4.89,1.55-10.79,6-12.48,7.35l-.08.06-1.08.75.68-1.13c0-.07,4.33-7.12,12-9.7a24.36,24.36,0,0,1,7.3-1.35,9.47,9.47,0,0,1,4.32.89,5.2,5.2,0,0,1,2.75,3.31c1,3.55-2.18,7.5-2.29,7.63a15.43,15.43,0,0,0,.32,7.33,2.93,2.93,0,0,0,.84.85L111,72a6.25,6.25,0,0,1,3,5.42c0,4.31-4.37,6.64-7.87,8.52-.58.31-1.13.6-1.62.89Z"/><path class="f" d="M99.29,53.22c-.69-1.18-2.47-3.45-6.56-5.44A35.63,35.63,0,0,0,77,44.41h0a35.63,35.63,0,0,0-15.72,3.36c-4.09,2-5.87,4.27-6.56,5.44l-.3.39,3.51.78.11-.14.06-.13c.05-.23.52-1.48,4.43-3.39A32.82,32.82,0,0,1,77,47.66a32.81,32.81,0,0,1,14.48,3.07c3.91,1.91,4.38,3.16,4.43,3.39l.06.13.11.14,3.51-.78-.3-.39Z"/><path class="f" d="M103.87,53.72c1.88-1.56.48-3,.63-4.77a5.88,5.88,0,0,1,.46-2.32c1.73-2.73,5.8-3.56,5.84-3.56l1.91-.37-1.27-1.48A13.48,13.48,0,0,0,98,38.66c-5.63,1.82-9.79,8-9.95,8.22l2.82,1.33c0-.05,3.33-5.84,8.16-7.4a12.35,12.35,0,0,1,9,.72A10.59,10.59,0,0,0,103,45.41a7.35,7.35,0,0,0-.81,3.35c-.13,1.55-.25,3-1.4,4l3,1Z"/><path class="f" d="M100.26,52.84l.39-.33c1.05-.87,1.17-2.28,1.3-3.78a7.55,7.55,0,0,1,.85-3.47,10.5,10.5,0,0,1,4.61-3.74,12.56,12.56,0,0,0-4.81-1,11.18,11.18,0,0,0-3.44.53c-4.48,1.44-7.64,6.66-8,7.28l-.13.21L87.68,47l.17-.27c0-.06,4.23-6.45,10.1-8.34a15.27,15.27,0,0,1,4.69-.76,13.32,13.32,0,0,1,9,3.4l1.58,1.85-2.39.47s-4,.84-5.66,3.44a5.83,5.83,0,0,0-.42,2.19,5.32,5.32,0,0,0,.18,1.57c.24,1.1.49,2.24-.91,3.39l-.12.1-3.67-1.2Z"/><path class="f" d="M96.41,50.76s.76-3.32,2.86-5a7.43,7.43,0,0,1,6.61-1.09l.53-1.62a9.74,9.74,0,0,0-8.12,1.32C94.46,47.07,94,49.51,94,49.78l2.46,1Z"/><path class="f" d="M93.65,50l0-.22c0-.28.52-2.83,4.45-5.6a10,10,0,0,1,8.37-1.36l.27.09-.7,2.16-.27-.09a7.58,7.58,0,0,0-2.24-.33A6.41,6.41,0,0,0,99.45,46c-2,1.6-2.75,4.8-2.76,4.83l-.07.33-3-1.18Zm12.06-5.63.35-1.08a9.63,9.63,0,0,0-2.32-.28,9,9,0,0,0-5.27,1.63c-3.22,2.27-4,4.31-4.17,5l1.93.77a10,10,0,0,1,2.88-4.83,7.07,7.07,0,0,1,4.45-1.5,8.47,8.47,0,0,1,2.15.28Z"/><path class="f" d="M83.9,120.86a14.22,14.22,0,0,1-2.54-3.77,1.17,1.17,0,0,1,.17-1.3,2.37,2.37,0,0,1,1.73-.52H89a2.49,2.49,0,0,1,1.84.56,1.34,1.34,0,0,1,.17,1.54,10.1,10.1,0,0,1-2.67,3.54,3.59,3.59,0,0,1-2.29.82h0a2.89,2.89,0,0,1-2.15-.87Z"/><path class="f" d="M85.16,77.68l3-.2a15.89,15.89,0,0,0-1.28,3.13c-.57,2,.52,4.92.52,4.92s-4-4.58-2.27-7.86Z"/><path class="b" d="M77,66.86c-1.93,0-4.45-.05-6.34-1.41,0,0,2.48,4.34,6.34,4.34v0c3.86,0,6.34-4.34,6.34-4.34-1.89,1.36-4.41,1.41-6.34,1.41Z"/><path class="f" d="M82.32,66.83a9.57,9.57,0,0,1-10.64,0S74.5,70.28,77,70.31h0c2.48,0,5.31-3.47,5.31-3.47Z"/><path class="f" d="M89,129.74l-.22-2.81c9.1-.7,12-9.42,12-10.34h2.82c0,2.12-3.8,12.32-14.59,13.15Z"/><path class="d" d="M92,111.47a7.07,7.07,0,0,0,0-2.81,12.84,12.84,0,0,1,3.4-1.2c.9-.57,5.53.59,8.88-3.47,4.2-5.08,3.32-8.11,3.32-8.11,1.08,1.2,2.12.74,3.76,6.32s-.77,9.47-5.28,13.38a14.32,14.32,0,0,1-7.72,2.9c.87-.87-1.48-1-3.1-1.56a4.33,4.33,0,0,0-1.06-3.59A5.49,5.49,0,0,0,92,112l-.12-.29a2.49,2.49,0,0,0,.07-.27Z"/><path class="e" d="M95.24,116.87c.09-.27.16-.55.23-.83s.45-1.18,0-.18a3.68,3.68,0,0,0,.25-.78c7.29,0,13.63-5,12.41-15.54,1-1.27,2.29,2.56,2.29,2.56s3.65,10.6-5.78,14.71c-3.14,1.37-5.92,2.35-6.57,2a3.3,3.3,0,0,1-3.06-1.3c.09-.19.17-.38.23-.58Z"/><path class="f" d="M92.11,109.94a5.86,5.86,0,0,0-.62-2.61l-.1-.17a24.81,24.81,0,0,0,8.79-1.39c3-1.21,6.81-5.35,7.46-10.21,0,0,5.7,4.4,4,13.8-1.57,8.83-9,11.71-17.39,12.2,0-.06.95-2,.65-3.23,4.79.35,10.14-1.5,12.73-5.75,2.36-3.89,1.7-10.54.73-11.51-2.37,7.48-10.91,9-16.26,8.87Z"/><path class="f" d="M95.52,112.16c-1-1.09-2.86-2.39-7.13-2.39H65.61c-4.27,0-6.12,1.3-7.13,2.39-1.47,1.58-1.7,3.79-.68,6.54C60.5,126,64.29,133.49,77,133.5h0c12.69,0,16.49-7.46,19.19-14.8,1-2.76.78-5-.68-6.54Zm-2,6c-1.29,3.68-4.74,12.6-16.54,12.61s-15.26-8.93-16.54-12.61c-.71-2-.66-3.56.17-4.49.56-.64,1.86-1.41,4.8-1.41H88.57c2.95,0,4.24.77,4.8,1.41.82.94.88,2.45.17,4.49Z"/><path class="f" d="M91.23,104.59a27.79,27.79,0,0,0,4.62,8.06s-4.26-.19-4.5-.95a88.09,88.09,0,0,1-5.26-19.24c1.33,2.18,5,11.75,5.14,12.13Z"/></svg>