<svg xmlns="http://www.w3.org/2000/svg" viewBox="0 0 120 164"><defs><style>.a{fill:#d34a47;}.b{fill:#fff;}</style></defs><path class="a" d="M75.81,129.52,77,110.35l3.18-5.42s-7.23,3-19.34,3S41.58,105,41.58,105l3.56,5.92,1.26,18.62c0,2,6.58,3.62,14.71,3.62s14.71-1.62,14.71-3.62"/><path class="a" d="M72.18,40l2.41-9.55L88,16.38l-3.52-3-14.16,15-2.8,11.4c-2-.07-4.15-.11-6.33-.11-14.91,0-27,1.7-27,3.8s12.09,3.8,27,3.8,27-1.7,27-3.8c0-1.54-6.56-2.87-16-3.46"/><path class="b" d="M70.78,45.34a11.46,11.46,0,0,1-2.06.12c-1.54,0-2.63,0-3.07-.41a.69.69,0,0,1-.18-.46.59.59,0,0,1,.44-.53l.23.37c-.1,0-.16.08-.16.12,0,.21,1.57.35,2.78.33s2.66-.11,2.66-.32-.11-.12-.3-.17l.23-.36c.31.1.58.28.58.61,0,.55-.7.63-1.16.7"/><path class="a" d="M87.95,16.4c.34-.39-.17-1.38-1.14-2.22s-2-1.2-2.36-.81.17,1.38,1.14,2.22,2,1.2,2.36.81"/><path class="a" d="M75.17,82.7c-.32-3,6.67-7.47,4.88-7.61-3.86.22-5.78,4.52-7.72,9-.71,1.65-3.15,8.7-4.74,7.83s2.07-6.66,3.1-10.1c-1.19.87-5.54,4.25-6.66,1.08-1.8,1.53-5.65,2.36-5.22-1.66-1,1.7-3.11,4.07-5.69,3.08-3.39-1.29,2-12.1,3.3-11.55s-.27,3-.69,4c-.92,2.1-2,4.75-1.28,5.29,1.22.93,4.54-3.51,4.61-3.61.62-.82,2.39-6.18,3.81-5.57s-3.55,7.7-1.69,9.1c.38.28,1.91-.17,2.85-1.19.6-.65.4-2.1,2.41-6.91s3.81-10.79,5.19-10.34.24,3.53-.25,4.67C69,73.6,65,82.48,66.92,81.81s2.89-.71,4.74-2.89,1.77-5.76,3-5.68,1,1.22.73,2.1c1.22-1.4,5.78-4.33,6.88-1.42,1.3,3.44-6.52,8.42-4.57,8.17a11.82,11.82,0,0,0,6.3-4l3.62-32.57s-3.65,3-26.84,3-26.46-3-26.46-3l3.08,29.73c1.64-4.65,5.52-14.06,11.65-13.75,2.79.14,6.51,5.51,3.32,5.69-1.35.08-1.49-2.68-3.08-3.08-1.15-.29-2.76.65-3.8,1.66-2.07,2-6.52,10-5.93,14,.75,5.08,7-1.76,8.07-3.8.75-1.43,1.25-5.67,2.88-5.23s-.14,4.82-1.32,8.69c-1.33,4.34-2,8.93-3.69,8.4s1-6.13.95-7.12c-1.56,1.44-4.45,5.1-8.13,3.29l1.92,18.46s5.09,4,20.43,4,20.62-4,20.62-4l2.38-21.38c-1.95,1.89-8.1,5.26-8.5,1.47"/></svg>