<svg xmlns="http://www.w3.org/2000/svg" viewBox="0 0 368 164"><defs><style>.a{fill:#423426;}</style></defs><path class="a" d="M146,50c10,0,20.28,2.83,28.06,9.3A47.23,47.23,0,0,1,184,70.89c4.92-8,12.11-14.72,21-18a48.92,48.92,0,0,1,33.8.2c9.42,3.44,17.66,9.43,25.13,16,5.84,5.16,11.25,10.8,17.27,15.77a35,35,0,0,0,10.48,6.32,14.61,14.61,0,0,0,15-3.89,9.92,9.92,0,0,0-.56-13.61,5.6,5.6,0,0,0-8.22,1.11c-1.49,2.19-.65,4.93.51,7.05-3.1-2.26-6.2-5.41-6.19-9.53-.64-4.75,2.88-8.95,7.11-10.61,8.24-3.3,18.58-.45,23.78,6.8,5,6.77,5.4,15.68,4.53,23.74a28.41,28.41,0,0,1-11.69,19.25c-8.92,6.37-20.23,8.34-31,8.21a87.31,87.31,0,0,1-30.16-6.48c-16-6.44-31-15.35-47.57-20.49A57,57,0,0,0,190,89.14c-4.67,0-9.1-.25-13.51,0a58.55,58.55,0,0,0-15.77,3.59c-16.83,5.23-32,14.36-48.38,20.82-13.79,5.36-29.06,7.86-43.7,4.88-8.19-1.66-16.34-5.28-21.86-11.73a29.38,29.38,0,0,1-6.77-20c-.26-6.78,1.23-14,5.71-19.28a20.51,20.51,0,0,1,17.35-7A14.66,14.66,0,0,1,74,65.83c2,2.65,2.14,6.27,1.26,9.37a15,15,0,0,1-5.72,6.63c1.23-2.08,2-4.83.52-7A5.63,5.63,0,0,0,61.54,74,10,10,0,0,0,60,85.43c2.09,3.8,6.42,6,10.62,6.41,6.34.55,11.84-3.38,16.5-7.2,9.63-8.29,18.3-17.78,29-24.8C124.9,53.94,135.28,50,146,50Z"/></svg>