<svg xmlns="http://www.w3.org/2000/svg" viewBox="0 0 150 164"><defs><style>.a{fill:#e44f26;}.b{fill:#f1662a;}.c{fill:#ebebeb;}.d{fill:#010101;}.e{fill:#fff;}</style></defs><title>html</title><path class="a" d="M39.83,126.17,32,38.38h86l-7.83,87.77-35.22,9.76Z"/><path class="b" d="M75,128.45l28.46-7.89,6.7-75H75Z"/><path class="c" d="M75,78.12H60.75l-1-11H75V56.33H48l.26,2.89,2.65,29.67H75Z"/><path class="c" d="M75,106.08h0l-12-3.24-.77-8.59H51.39l1.51,16.9L75,117.29h0Z"/><path class="d" d="M40,14.53h5.47v5.41h5V14.53h5.47V30.89H50.48V25.41h-5v5.48H40V14.53Z"/><path class="d" d="M63.14,20H58.33V14.53H73.43V20H68.62V30.89H63.14V20Z"/><path class="d" d="M75.83,14.53h5.71L85,20.28l3.51-5.75h5.71V30.89H88.81V22.78L85,28.6H85l-3.77-5.82v8.11H75.83V14.53Z"/><path class="d" d="M97,14.53h5.47v11h7.69v5.41H97V14.53Z"/><path class="e" d="M75,78.12V88.88H88.22l-1.25,14-12,3.24v11.2L97,111.17l.16-1.82L99.73,81l.26-2.89H75Z"/><path class="e" d="M75,56.33V67.09h26l.22-2.42.49-5.46.26-2.89Z"/></svg>