<svg xmlns="http://www.w3.org/2000/svg" viewBox="0 0 174 164"><defs><style>.a{fill:#f7df1e;}</style></defs><title>js</title><path class="a" d="M40,38.39h94v94H40Z"/><path d="M64.72,116.94l7.19-4.35c1.39,2.46,2.65,4.54,5.68,4.54s4.73-1.14,4.73-5.55v-30h8.83V111.7C91.15,120.85,85.79,125,78,125c-7.07,0-11.17-3.66-13.25-8.08"/><path d="M96,116l7.19-4.16c1.89,3.09,4.35,5.36,8.71,5.36,3.66,0,6-1.83,6-4.35,0-3-2.4-4.1-6.44-5.87L109.2,106c-6.37-2.71-10.6-6.12-10.6-13.31,0-6.63,5-11.67,12.94-11.67,5.62,0,9.65,2,12.56,7.07l-6.88,4.42c-1.51-2.71-3.15-3.79-5.68-3.79s-4.23,1.64-4.23,3.79c0,2.65,1.64,3.72,5.43,5.36l2.21.95c7.51,3.22,11.74,6.5,11.74,13.88,0,8-6.25,12.3-14.64,12.3-8.2,0-13.5-3.91-16.09-9"/></svg>