<svg xmlns="http://www.w3.org/2000/svg" viewBox="0 0 400 164"><defs><style>.a{fill:#1a1918;}.b{fill:#21609b;}</style></defs><path class="a" d="M365.7,57l14.27.08L351.27,96A16.69,16.69,0,0,0,349,99.25a72.43,72.43,0,0,0-2.78,10.19l-13.06.06s2-7.29,1.95-11.18c-.07-3.39-1.81-6.78-2.78-10.19S330,78,330,78H343.4l1.85,7.41L365.7,57"/><path class="a" d="M338.67,64.62C341.3,66.21,342.92,75,342.92,75s-13.78.2-21.29.2h-6.48l-7.87,34.26h-12s7.49-37.24,9.26-44c.57-2.19,3.93-1.81,9.59-1.81h9c5.84,0,12.66-.75,15.53,1"/><path class="a" d="M282.63,81.31a7.21,7.21,0,0,0-1.27-4.75c-1.41-2.17-2.71-2.68-6.41-2.79-10.46-.33-10.26,7.42-10.26,7.42l17.94.12ZM294,72.43C295.5,78,292.58,91,292.58,91S277.33,90.7,269,91c-2.6.08-5.71-.28-6.48.93-1.09,1.69.4,4.3,1.66,5.4,1.45,1.27,4.27,1.41,5.29,1.54,6.78.86,21,.22,21,.22L288,109.93s-20.06,1-30.1-1.39a10.21,10.21,0,0,1-5.09-2.78c-.34-.37-.64-.87-1-1.31a12.16,12.16,0,0,1-1.35-2.39c-2.29-6.11.27-17.81,2.78-24.08.29-.73.66-1.65,1-2.43.48-1,.89-2.08,1.27-2.66.26-.4.58-.66.85-1a15.48,15.48,0,0,1,1-1.27,19,19,0,0,1,3.24-2.78c4.18-3.13,11.75-5.56,20.84-4.63,3.42.35,8.59,1.57,11.11,5.09.68.94,1,2.81,1.39,4.17Z"/><path class="a" d="M238.76,63.6l11.67-.07s-6.51,30.86-9.82,45.91H227.18c-9.39,0-17.74,1.16-21.3-5.56-3.45-6.52-.16-17.25,1.39-24.54,1.09-5.16,3.39-15.7,3.39-15.7l12.09-.11s-3.42,16.41-4.84,24.61c-.51,2.94-1.56,5.7-.46,7.87s2.5,2.21,6.95,2.32c1.41,0,6,0,6,0l8.33-34.73"/><path class="a" d="M184.12,85.82c1.22-4.34,3-9.05,2.78-13-.25-4.19-3.75-8-6-8.8a15.42,15.42,0,0,0-15.74,3.7c-3.28,3.56-4.39,7.71-5.56,13.43-.87,4.25-1.57,8.73,0,12,2.79,5.85,11.48,4.57,20.84,4.63,1.39-3.72,2.54-7.9,3.7-12Zm16.21-17.13c1.33,9.7-3.78,20.4-7.31,29.7,3.59.32,6.74-.05,7,.22s-2.41,11.11-3.33,11.14c-2.85.07-12.3.15-16.24.15-12.86,0-24.89.84-31-5.56a20.16,20.16,0,0,1-4.63-10.19c-.69-5.23.18-11,1.39-15.74a47.65,47.65,0,0,1,4.63-12c5.4-9.43,14.8-16.43,30.56-14.82a29.36,29.36,0,0,1,10.19,3.24c.19.11.85.64,1,.73,3.7,2.36,7.08,8,7.79,13.16Z"/><path class="a" d="M143.44,63.65c-.78,3.54-1.56,7.56-2.38,11.06h-13c1-3.88,1.77-7.74,2.78-11.11,4.15,0,8,.06,12.56.06"/><path class="a" d="M127.63,78h12.5c-1.63,9-4.87,23.64-7.41,33.8-1.59,6.36-2.65,11-6.95,14.35-.38.3-.61.16-.93.46-.79.75-4.45,1.63-6.48,1.85a93.32,93.32,0,0,1-11.08,0c1.06-3.88,2.26-8.53,3.2-12,9.88,1.19,10.13-8.14,12-17.13C123.65,94.05,127,80,127.63,78"/><path class="b" d="M98.46,101.56l-.27.69C93.63,111.15,85.54,116.6,74,116.84a33.82,33.82,0,0,1-13.89-2.78A35.88,35.88,0,0,1,43.44,98.32c-4.77-9.25-5.64-22.11,4.29-31.72.15,0-1.2,2.08-1.05,2.08l-.27.89C39.26,92,61.3,111.17,82.72,109a28.14,28.14,0,0,0,15.74-7.41"/><path class="b" d="M85.5,92.3a20.49,20.49,0,0,0,14.35-6c-2.92,7.4-11.36,12.16-22.69,10.65-9.48-1.27-18.52-10.81-19.45-20.37-.68-7,1.75-11.11,5.74-16.15a16.9,16.9,0,0,0-2,6C59.9,81.43,73.45,92.23,85.5,92.3"/><path class="b" d="M99.31,73.61c-.84,1.92-5.66,5.55-7.79,6-8.44,1.8-13.84-2.2-16.67-6.76a20.83,20.83,0,0,1-1.34-3c-1.1-3.73-.59-9.38,2.68-12.3a15.37,15.37,0,0,0-.61,8.1,18,18,0,0,0,2.23,4.88A12.82,12.82,0,0,0,82.91,75a13.54,13.54,0,0,0,2.56,1.23c2.13.62,6.61,2.27,13.84-2.65"/></svg>