<svg xmlns="http://www.w3.org/2000/svg" viewBox="0 0 174 164"><defs><style>.a{fill:#fff;}.b{fill:#3492ff;}</style></defs><path d="M40,46h8.7v57.72h34.4v7.12H40Zm66.81,17c5.93-.79,12.26.4,17,4.35,5.14,3.56,7.91,9.88,8.3,15.81.79,7.12,0,14.23-4,20.16a20.84,20.84,0,0,1-15.42,8.3c-5.93.79-12.65-.4-17.79-4.35-4.74-4-7.12-9.88-7.91-15.81-.79-6.33,0-13.44,4-19A19.92,19.92,0,0,1,106.81,63Z"/><path class="a" d="M108,69.72a15.37,15.37,0,0,1,11.47,3.56,19.87,19.87,0,0,1,4.74,11.07c.4,4.35,0,9.09-2,13a13.74,13.74,0,0,1-9.88,7.51,13.55,13.55,0,0,1-11.07-2.77,16.3,16.3,0,0,1-5.93-9.49,27.75,27.75,0,0,1,1.58-15A13.69,13.69,0,0,1,108,69.72Z"/><path class="b" d="M40,121.12h93.3V131H40Z"/></svg>