<svg xmlns="http://www.w3.org/2000/svg" viewBox="0 0 234 164"><path d="M183.4,133H51.07A11.22,11.22,0,0,1,40,121.95V49.1A11.22,11.22,0,0,1,51.07,38H182.93A11.22,11.22,0,0,1,194,49.1v72.85A10.83,10.83,0,0,1,183.4,133ZM51.07,45.41a4,4,0,0,0-3.69,3.69v72.85a3.64,3.64,0,0,0,3.69,3.69H182.93a3.64,3.64,0,0,0,3.69-3.69V49.1a3.64,3.64,0,0,0-3.69-3.69Zm11.07,65.47V60.16H76.89L91.64,78.6,106.4,60.16h14.75v50.72H106.4v-29L91.64,100.28,76.89,81.83v29Zm92.68,0L132.68,86.44h14.75V60.16h14.75V86h14.75l-22.13,24.9Z"/></svg>