<svg xmlns="http://www.w3.org/2000/svg" viewBox="0 0 172 164"><defs><style>.a{fill:#8d6748;}.b{fill:#fff;}</style></defs><path class="a" d="M129.2,110.73,88.8,134.07a5.57,5.57,0,0,1-5.61,0L42.8,110.73a5.61,5.61,0,0,1-2.8-4.82V59.23a5.54,5.54,0,0,1,2.8-4.82L83.2,31.07a5.57,5.57,0,0,1,5.61,0L129.2,54.41a5.61,5.61,0,0,1,2.8,4.82v46.67a5.86,5.86,0,0,1-2.8,4.82Z"/><path class="b" d="M85.94,37.41a4.61,4.61,0,0,0-2.41.67L48.64,58.22a4.76,4.76,0,0,0-2.41,4.15v40.28a4.69,4.69,0,0,0,2.41,4.15l34.89,20.14a4.66,4.66,0,0,0,4.82,0l34.89-20.14a4.76,4.76,0,0,0,2.41-4.15V62.37a4.69,4.69,0,0,0-2.41-4.15L88.36,38.08a4.61,4.61,0,0,0-2.41-.67Zm0,1.68h0a3.17,3.17,0,0,1,1.57.45l34.89,20.14A3.23,3.23,0,0,1,124,62.43v40.28a3.23,3.23,0,0,1-1.57,2.75L87.51,125.6a3.17,3.17,0,0,1-1.57.45,3,3,0,0,1-1.57-.45L49.48,105.46a3.23,3.23,0,0,1-1.57-2.75V62.43a3.23,3.23,0,0,1,1.57-2.75L84.37,39.54a3.34,3.34,0,0,1,1.57-.45ZM82.72,74.21h4.71a.51.51,0,0,0,.39-.17c2.8-3.14,3.09-9.7,3.09-11.67a.56.56,0,0,0-.56-.56H79.8a.56.56,0,0,0-.56.56c0,1.91.28,8.47,3.09,11.67A.51.51,0,0,0,82.72,74.21ZM81.43,63.55h7.4a.56.56,0,0,1,.56.56c0,1.57-.28,6-2.19,8.3a.74.74,0,0,1-.45.17H83.45a.51.51,0,0,1-.39-.17c-1.91-2.24-2.13-6.73-2.19-8.3A.56.56,0,0,1,81.43,63.55Zm4.71-2.86a2.34,2.34,0,0,0,.79-3.31c-.73-1.12-1.07-2.08-.79-2.47-.73.9-2,1.85-.62,3.87A3.16,3.16,0,0,1,86.14,60.69Zm-2.24.17a1.58,1.58,0,0,0,.5-2.24c-.5-.73-.73-1.4-.5-1.63-.5.62-1.29,1.23-.39,2.64A2.27,2.27,0,0,1,83.9,60.86Zm-.17,11.05h2.8a.48.48,0,0,0,.34-.17,9,9,0,0,0,1.63-4.38s-.06.5-1.4,1a13.73,13.73,0,0,1-5.1.22,8,8,0,0,0,1.4,3.14A.4.4,0,0,0,83.73,71.91ZM62.64,87.67V76.46H60.56l-3.42,5.27-3.42-5.27H51.64V87.73h2v-8l3.48,5.22h.06l3.53-5.27v8Zm12.57-11a6.52,6.52,0,0,0-2.36-.45,5.52,5.52,0,0,0-2.36.45,5.36,5.36,0,0,0-1.85,1.23,5.64,5.64,0,0,0-1.23,1.85A6.16,6.16,0,0,0,67,82v.06a5.93,5.93,0,0,0,.45,2.24,5.24,5.24,0,0,0,1.18,1.85,5.36,5.36,0,0,0,1.85,1.23,6.52,6.52,0,0,0,2.36.45,5.52,5.52,0,0,0,2.36-.45A5.36,5.36,0,0,0,77,86.16a5.64,5.64,0,0,0,1.23-1.85,6.16,6.16,0,0,0,.45-2.24V82a5.93,5.93,0,0,0-.45-2.24,5.24,5.24,0,0,0-1.18-1.85A5.36,5.36,0,0,0,75.2,76.68Zm1.35,5.44a4.8,4.8,0,0,1-.28,1.51,4.63,4.63,0,0,1-.79,1.23,4.49,4.49,0,0,1-1.18.84,3.34,3.34,0,0,1-1.51.34,3.51,3.51,0,0,1-1.51-.34,4.49,4.49,0,0,1-1.18-.84,3.81,3.81,0,0,1-.79-1.29A4.87,4.87,0,0,1,69,82V82a4.81,4.81,0,0,1,.28-1.51,4.64,4.64,0,0,1,.79-1.23,4.49,4.49,0,0,1,1.18-.84,3.58,3.58,0,0,1,3,0,4.49,4.49,0,0,1,1.18.84,3.8,3.8,0,0,1,.79,1.29,4.86,4.86,0,0,1,.28,1.57Zm8.3-1.68a4.63,4.63,0,0,1,.79-1.23,4.5,4.5,0,0,1,1.18-.84A3.11,3.11,0,0,1,88.27,78a3.46,3.46,0,0,1,1.74.39,8.07,8.07,0,0,1,1.4,1L92.7,78a9.76,9.76,0,0,0-.84-.73,5.35,5.35,0,0,0-1-.56c-.39-.11-.73-.22-1.18-.34a10.93,10.93,0,0,0-1.4-.11,6.3,6.3,0,0,0-2.36.45,5.36,5.36,0,0,0-1.85,1.23,6.47,6.47,0,0,0-1.18,1.85A5.93,5.93,0,0,0,82.49,82v.06a6.15,6.15,0,0,0,.45,2.24,5.23,5.23,0,0,0,1.18,1.85,5.55,5.55,0,0,0,4,1.68,6.9,6.9,0,0,0,1.51-.11,4.16,4.16,0,0,0,1.18-.39,4.88,4.88,0,0,0,1-.62,6.38,6.38,0,0,0,.9-.84l-1.29-1.29A10.54,10.54,0,0,1,90,85.65a3.33,3.33,0,0,1-1.74.39,4.27,4.27,0,0,1-1.46-.34,3.5,3.5,0,0,1-1.18-.84,3.8,3.8,0,0,1-.79-1.29A4.87,4.87,0,0,1,84.57,82V82A4.81,4.81,0,0,1,84.85,80.44Zm11.84-4V87.67h2V83H104v4.71h2V76.45h-2v4.66H98.65V76.45ZM118.23,85l1.12,2.69h2.08L116.49,76.4h-1.8l-4.94,11.28h2L113,85Zm-2.64-6.23,1.91,4.49h-3.81ZM50.24,91.83h71.52v-.62H50.24ZM91.36,70.12c0,.22-.06.39-.06.62h30.46v-.62Zm-12.51,0H50.24v.62H78.9C78.9,70.51,78.85,70.34,78.85,70.12Z"/></svg>