<svg xmlns="http://www.w3.org/2000/svg" viewBox="0 0 172 164"><defs><style>.a{fill:#539e43;}</style></defs><path class="a" d="M86,134a8.35,8.35,0,0,1-4-1l-12.67-7.52c-1.9-1-1-1.43-.38-1.62a23.07,23.07,0,0,0,5.71-2.57.88.88,0,0,1,1,.1l9.71,5.81a1.21,1.21,0,0,0,1.14,0l38-22a1.09,1.09,0,0,0,.57-1V60.17a1.09,1.09,0,0,0-.57-1l-38-21.9a1.21,1.21,0,0,0-1.14,0l-38,21.9a1.19,1.19,0,0,0-.57,1v43.9a1.19,1.19,0,0,0,.57,1l10.38,6c5.62,2.86,9.14-.48,9.14-3.81V64A1.16,1.16,0,0,1,68,62.84h4.86A1.16,1.16,0,0,1,74,64v43.33c0,7.52-4.1,11.9-11.24,11.9-2.19,0-3.9,0-8.76-2.38l-10-5.71a8,8,0,0,1-4-7V60.27a8,8,0,0,1,4-7l38-22a8.5,8.5,0,0,1,8,0l38,22a8,8,0,0,1,4,7v43.9a8,8,0,0,1-4,7l-38,22a9.75,9.75,0,0,1-4,.86Zm11.71-30.19c-16.67,0-20.1-7.62-20.1-14.1a1.16,1.16,0,0,1,1.14-1.14h5a1,1,0,0,1,1,1c.76,5,3,7.52,13,7.52,8,0,11.43-1.81,11.43-6.1,0-2.48-1-4.29-13.43-5.52C85.43,84.36,79,82.08,79,73.79c0-7.71,6.48-12.29,17.33-12.29,12.19,0,18.19,4.19,19,13.33a1.54,1.54,0,0,1-.29.86,1.18,1.18,0,0,1-.76.38h-5a1.12,1.12,0,0,1-1-.86c-1.14-5.24-4.1-7-11.9-7-8.76,0-9.81,3-9.81,5.33,0,2.76,1.24,3.62,13,5.14s17.24,3.71,17.24,11.9c-.1,8.38-7,13.14-19,13.14Z"/></svg>