<svg xmlns="http://www.w3.org/2000/svg" viewBox="0 0 168 164"><defs><style>.a{fill:#f2f2f2;}.b{fill:#ed1c24;}.c{fill:#c1272d;}.d{fill:#ff931e;}.e{fill:#ffb81e;}.f{fill:#f7bd89;}.g{fill:#fbd5a0;}.h{fill:#fff;}.i{fill:#4d4d4d;}.j{fill:gray;}</style></defs><circle class="a" cx="84.33" cy="73" r="73"/><path class="b" d="M106.29,116.16a64.57,64.57,0,0,1-44.65,0,3.92,3.92,0,0,1-2.39-3.4v-3.48a1.62,1.62,0,0,1,2.39-1.54,64.57,64.57,0,0,0,44.65,0,1.62,1.62,0,0,1,2.39,1.54v3.48a4,4,0,0,1-2.39,3.4Z"/><path class="c" d="M106.29,111.92a47.79,47.79,0,0,1-44.65,0c-1.33-.66-2.39-2.84-2.39-4.73v-4.8c0-1.88,1.06-2.81,2.39-2.12a47.79,47.79,0,0,0,44.65,0c1.33-.66,2.39.24,2.39,2.12v4.8c0,1.88-1.09,4.06-2.39,4.73Z"/><circle class="c" cx="83.96" cy="117.97" r="2.04"/><circle class="d" cx="83.96" cy="117.68" r="1.75"/><circle class="e" cx="84.47" cy="118.29" r="0.61"/><circle class="d" cx="83.96" cy="124.6" r="5.47"/><circle class="e" cx="83.96" cy="124.66" r="4.91"/><path class="d" d="M85.4,123.09a1.74,1.74,0,0,1,0,2.34,2.28,2.28,0,0,1-1.41.37h-.56V127h-1v-4.27H84a2.08,2.08,0,0,1,1.41.37Zm-.69,1.67a.87.87,0,0,0,.16-.56.66.66,0,0,0-.21-.53,1.2,1.2,0,0,0-.69-.16h-.53v1.43h.64a.8.8,0,0,0,.64-.19Z"/><path class="f" d="M128.27,80.11c1.33,18.18-18.34,34.51-44,34.48s-45.37-16.3-44-34.48S61.29,46.83,84.28,46.8s42.63,15.08,44,33.31Z"/><path class="g" d="M84.15,44.25c-24.16,0-46.59,17-42.34,42.92.85,2.39,2.26,8.6,9,14.1,2,1.65,5.49,3,7.14,1.91,4.22-2.87-3.27-11.1,5.28-18.69H63C67.66,81,74.25,78.15,84.1,78.15s16.43,2.81,21.08,6.34H105c8.55,7.59,1.09,15.82,5.28,18.69,1.65,1.11,5.15-.27,7.14-1.91,6.72-5.49,8.15-11.71,9-14.1,4.25-25.93-18.1-42.92-42.26-42.92Z"/><path d="M104.93,87.28a27.62,27.62,0,0,0-20.71-9.82h-.11a27.53,27.53,0,0,0-20.71,9.82c-4.19,5.1-2.68,7.27-2.68,12.16,0,17.68,6.19,12.53,10.35,14.65s8.55,1.33,13.06,1.33h.08c4.51,0,8.81.74,13.06-1.35s10.35,3.08,10.35-14.6c0-4.86,1.49-7.09-2.71-12.18Z"/><circle class="f" cx="54.34" cy="79.42" r="7.41"/><circle cx="55" cy="78.18" r="7.41"/><circle class="h" cx="56.89" cy="74.86" r="1.91"/><circle class="f" cx="113.8" cy="79.42" r="7.41"/><circle cx="113.37" cy="78.18" r="7.41"/><circle class="h" cx="115.26" cy="74.86" r="1.91"/><path class="f" d="M68.57,50.89s-25.09,4.33-26.09,34.3a.6.6,0,0,1-.9.5l-.8-.48-.61-7.86,1.14-16L51.76,53.6l9.4-3.8,7.41,1.09Z"/><path class="f" d="M99.7,50.89s25.09,4.33,26.09,34.3a.6.6,0,0,0,.9.5l.8-.48.61-7.86-1.14-16L116.51,53.6l-9.4-3.8L99.7,50.89Z"/><path class="i" d="M83.62,104.26V89.14h1.1v15.08A42.2,42.2,0,0,1,90.49,106c2.1.74,4.11,1,3.32,1.14-2.76.11-5.79-.93-9.5-.88s-6.77,1-9.5.88C74,107,76,106.69,78.12,106A51,51,0,0,1,83.62,104.26ZM91.1,84c.88,1.94-2.15,5.1-7,5.1s-7.83-3.16-7-5.1,3.9-2.63,7-2.65S90.25,82.05,91.1,84Z"/><path d="M68.57,50.89S39,55,41.57,84.31C41.7,85.79,35.68,78,31,75.57s-4.51-10.11-4.51-10.11S26.41,52,45.29,48,68.57,50.89,68.57,50.89Zm31.14,0s29.55,4.09,27,33.42c-.13,1.49,5.89-6.34,10.57-8.73s4.51-10.11,4.51-10.11S141.86,52,123,48,99.7,50.89,99.7,50.89Z"/><path class="f" d="M84.17,72C75,72,65.7,81,67.64,80c3.58-1.88,5.65-5.2,16.54-5.2S97.1,78.15,100.71,80c1.94,1-7.35-8-16.54-8Z"/><path class="f" d="M84.17,68.06c-7,0-14,6.85-12.56,6.08,2.73-1.43,6.24-4,12.56-4s9.82,2.52,12.56,4c1.46.77-5.57-6.08-12.56-6.08Z"/><path class="f" d="M84.12,45.84c-7.7,0-15.5,4.41-13.88,3.9a39.09,39.09,0,0,1,27.77,0c1.62.5-6.16-3.9-13.88-3.9Z"/><path class="j" d="M85.9,83c.21.48-.53,1.25-1.73,1.25s-1.94-.77-1.73-1.25,1-.64,1.73-.66,1.51.16,1.73.66Z"/></svg>