<svg xmlns="http://www.w3.org/2000/svg" viewBox="0 0 152 164"><defs><style>.a{fill:#fff;}.b{fill:#53c1de;}</style></defs><path class="a" d="M19.62,82.15c0,8.46,8.26,16.35,21.27,20.8-2.6,13.09-.47,23.63,6.66,27.74,7.33,4.22,18.24,1.3,28.6-7.75,10.1,8.69,20.3,12.11,27.42,8,7.32-4.24,9.54-15.5,6.87-29,13.56-4.48,21.14-11.21,21.14-19.78,0-8.26-8.27-15.41-21.11-19.83,2.88-14.05.44-24.34-7-28.62-7.16-4.13-17.48-.53-27.72,8.39C65.11,32.62,54.89,29.74,47.48,34c-7.15,4.14-9.19,14.88-6.58,28.21C28.32,66.62,19.62,73.93,19.62,82.15Z"/><path class="b" d="M107.76,66.72q-1.55-.53-3.2-1,.27-1.11.49-2.18c2.42-11.76.84-21.24-4.57-24.36-5.19-3-13.67.13-22.24,7.58Q77,47.83,75.76,49q-.83-.79-1.65-1.52c-9-8-18-11.33-23.38-8.2-5.18,3-6.72,11.91-4.54,23.05q.32,1.61.74,3.29c-1.27.36-2.5.75-3.68,1.16C32.72,70.47,26,76.23,26,82.19c0,6.16,7.22,12.34,18.18,16.09q1.3.44,2.69.84-.45,1.81-.78,3.55c-2.08,11-.46,19.65,4.71,22.63,5.34,3.08,14.3-.09,23-7.71q1-.9,2.07-1.91,1.35,1.3,2.69,2.45c8.45,7.27,16.8,10.21,22,7.22,5.33-3.09,7.07-12.43,4.82-23.8q-.26-1.3-.6-2.66.94-.28,1.85-.58c11.4-3.78,18.82-9.88,18.82-16.13,0-6-6.94-11.78-17.68-15.48Z"/><path class="a" d="M105.28,94.29l-1.67.52a99.64,99.64,0,0,0-5-12.6,99.61,99.61,0,0,0,4.84-12.41q1.53.44,3,.93c9.2,3.17,14.81,7.85,14.81,11.46,0,3.84-6.06,8.83-15.9,12.1Zm-4.08,8.09a36,36,0,0,1,.48,13.12c-.59,3.19-1.78,5.32-3.26,6.17-3.13,1.81-9.84-.54-17.06-6.76q-1.24-1.07-2.5-2.28a99.79,99.79,0,0,0,8.34-10.58A99.15,99.15,0,0,0,100.66,100q.3,1.23.54,2.41Zm-41.3,19c-3.06,1.08-5.5,1.11-7,.26-3.14-1.81-4.44-8.79-2.66-18.16q.31-1.61.73-3.3a99.9,99.9,0,0,0,13.4,1.94,103.41,103.41,0,0,0,8.54,10.55q-1,.92-1.89,1.74a36,36,0,0,1-11.13,7ZM45.56,94.26A36,36,0,0,1,34,88.1c-2.47-2.11-3.71-4.21-3.71-5.91,0-3.62,5.4-8.24,14.4-11.38,1.09-.38,2.24-.74,3.42-1.08A101.82,101.82,0,0,0,52.92,82.3,103.49,103.49,0,0,0,48,95q-1.27-.36-2.45-.77Zm4.81-32.73C48.5,52,49.74,44.78,52.86,43c3.33-1.93,10.68.82,18.44,7.7q.74.66,1.49,1.38a101.76,101.76,0,0,0-8.47,10.48A103.82,103.82,0,0,0,51,64.6q-.39-1.56-.68-3.06ZM93.26,72.13q-1.48-2.55-3-5c3.17.4,6.21.93,9.07,1.58a90.73,90.73,0,0,1-3.18,8.56q-1.35-2.57-2.86-5.17Zm-17.49-17a90.8,90.8,0,0,1,5.85,7.06Q78.7,62,75.72,62t-5.85.14c1.93-2.55,3.91-4.91,5.9-7.06ZM58.16,72.16q-1.47,2.56-2.81,5.14c-1.24-2.93-2.3-5.82-3.16-8.6,2.84-.63,5.86-1.15,9-1.55q-1.57,2.44-3,5ZM61.3,97.54a90.41,90.41,0,0,1-9.16-1.47c.88-2.84,2-5.78,3.22-8.78q1.34,2.58,2.82,5.15h0Q59.69,95,61.3,97.54Zm14.58,12.05c-2-2.17-4-4.58-6-7.16q2.86.11,5.82.11t6-.13a90.36,90.36,0,0,1-5.84,7.18ZM96.16,87.14a90.12,90.12,0,0,1,3.34,8.75,90.25,90.25,0,0,1-9.28,1.58q1.55-2.45,3.05-5.06t2.88-5.27Zm-6.56,3.15C88,93,86.44,95.55,84.82,98c-3,.21-6,.32-9.11.32s-6.1-.1-9-.28c-1.69-2.46-3.32-5-4.86-7.71h0c-1.54-2.66-3-5.34-4.24-8,1.28-2.67,2.7-5.36,4.23-8h0C63.38,71.62,65,69,66.66,66.6c3-.22,6-.34,9.05-.34h0c3.08,0,6.11.12,9.07.34,1.64,2.43,3.25,5,4.79,7.65s3,5.36,4.29,8c-1.29,2.66-2.72,5.36-4.27,8Zm8.76-47.44c3.33,1.92,4.62,9.66,2.53,19.82q-.2,1-.45,2a101.76,101.76,0,0,0-13.3-2.1,99.79,99.79,0,0,0-8.41-10.49Q79.89,51,81,50c7.34-6.39,14.2-8.91,17.33-7.11Z"/><path class="b" d="M75.72,73.31a8.88,8.88,0,1,1-8.88,8.88,8.88,8.88,0,0,1,8.88-8.88"/></svg>