<svg xmlns="http://www.w3.org/2000/svg" viewBox="0 0 174 164"><defs><style>.a{fill:#43a5eb;}.b{fill:#f34b41;}.c{fill:#fefb1f;}.d{stroke:#4c4c4c;stroke-width:0.93px;}.e{fill:#4c4c4c;}</style></defs><circle class="a" cx="86.91" cy="84.93" r="46.74"/><circle class="b" cx="87.07" cy="85.05" r="31.16"/><circle class="c" cx="87.07" cy="85.04" r="15.79"/><path d="M27.26,52.47,29,49.66a3.88,3.88,0,0,1,2.24-2,3.15,3.15,0,0,1,2.43.48,3,3,0,0,1,.73.64,3.39,3.39,0,0,1,.52.86,3.15,3.15,0,0,1,.23,1,2.65,2.65,0,0,1-.13,1l5.6.42-.74,1.19-5.5-.49-1.13,1.83,4.2,2.59-.68,1.1-9.51-5.88ZM29,52l3.36,2.08,1.14-1.84a2.4,2.4,0,0,0,.46-1.75,1.89,1.89,0,0,0-.92-1.2,2.12,2.12,0,0,0-.75-.29,1.93,1.93,0,0,0-.75,0,1.83,1.83,0,0,0-.73.36,3,3,0,0,0-.68.8L29,52Zm8.4-13.4,5-4.74.77.8L39,38.57l2.54,2.66L44.9,38l.82.86-3.38,3.24,2.84,3,4.06-3.89L50,42l-4.91,4.71-7.75-8.09ZM59.57,29.1a7.8,7.8,0,0,1,1.2,3.82A3.64,3.64,0,0,1,59.5,35.7a1.83,1.83,0,0,0,.74.69,1.18,1.18,0,0,0,1.08-.18l.24-.16.36-.24.37-.24.25-.16.57,1.08-.61.34a10.26,10.26,0,0,1-1.33.65,1.85,1.85,0,0,1-1,.12,1.82,1.82,0,0,1-.85-.43,3.71,3.71,0,0,1-.72-.94,3.32,3.32,0,0,1-1.37.23,3.94,3.94,0,0,1-1.52-.39A5.61,5.61,0,0,1,54.12,35a8.53,8.53,0,0,1-1.43-1.92,8.67,8.67,0,0,1-1-2.63,5,5,0,0,1,0-2A3.63,3.63,0,0,1,52.3,27a3.38,3.38,0,0,1,2.46-1.35,3.65,3.65,0,0,1,1.63.26A4.77,4.77,0,0,1,58,27a9.8,9.8,0,0,1,1.54,2.12Zm-6.82-.33a5.12,5.12,0,0,0,.88,3.44,9.33,9.33,0,0,0,1.13,1.61,5.07,5.07,0,0,0,1.23,1,2.9,2.9,0,0,0,1.28.41A2.13,2.13,0,0,0,58.47,35a2.16,2.16,0,0,0,.69-.65,2.41,2.41,0,0,0,.4-1.07,3.91,3.91,0,0,0-.11-1.47A7.38,7.38,0,0,0,58.67,30a9.87,9.87,0,0,0-1.43-2,3.92,3.92,0,0,0-1.34-1,2.54,2.54,0,0,0-1.16-.2,2.22,2.22,0,0,0-.88.26,2,2,0,0,0-.74.73,3.25,3.25,0,0,0-.38,1Zm12.92-8.13L67,20.27l0,0a.46.46,0,0,1,0,.22,1,1,0,0,0,0,.35l1.77,6.54a4.59,4.59,0,0,0,.55,1.35,2.27,2.27,0,0,0,.71.68,2,2,0,0,0,.87.28,3.43,3.43,0,0,0,1-.06,3.91,3.91,0,0,0,.86-.42,1.83,1.83,0,0,0,.62-.68,2.48,2.48,0,0,0,.28-1,4.58,4.58,0,0,0-.21-1.49l-1.91-7,1.16-.31,1.9,7a6.11,6.11,0,0,1,.25,1.85A3.08,3.08,0,0,1,74.42,29a3.26,3.26,0,0,1-.93,1,4.18,4.18,0,0,1-1.37.63,4.13,4.13,0,0,1-1.49.14,3.13,3.13,0,0,1-1.29-.41,3.31,3.31,0,0,1-1-1,5.52,5.52,0,0,1-.74-1.75l-1.91-7.07Zm17.66-3.26,5.58,0v1l-2.21,0,.08,9.14,2.32,0v1l-5.82.05v-1l2.21,0-.08-9.12-2.08,0v-1Zm16.07,1.06,3.21.78a3.88,3.88,0,0,1,2.56,1.53,3.15,3.15,0,0,1,.3,2.46,3,3,0,0,1-.38.9,3.39,3.39,0,0,1-.65.76,3.13,3.13,0,0,1-.87.53,2.65,2.65,0,0,1-1,.2L103.87,31l-1.36-.33-1.24-5.38-2.09-.51L98,29.61l-1.26-.31,2.64-10.87Zm1,1.46-.93,3.84,2.1.51a2.4,2.4,0,0,0,1.81-.11,1.89,1.89,0,0,0,.85-1.24,2.13,2.13,0,0,0,0-.8,1.91,1.91,0,0,0-.24-.71,1.83,1.83,0,0,0-.57-.58,3,3,0,0,0-1-.4l-2.1-.51Zm15.5,3.89,6,3.23-.52,1-5-2.67-1.74,3.25,4.13,2.21-.56,1-4.13-2.21-1.94,3.62,5,2.65-.52,1-6-3.21,5.28-9.88ZM126,34a1.45,1.45,0,0,1,.38.44,1.75,1.75,0,0,1,.2.54,1.48,1.48,0,0,1,0,.55,1.08,1.08,0,0,1-.21.48,1.22,1.22,0,0,1-.42.35,1.33,1.33,0,0,1-.52.14,1.6,1.6,0,0,1-.56-.06,1.64,1.64,0,0,1-.54-.28,1.59,1.59,0,0,1-.39-.43,1.5,1.5,0,0,1-.2-.51,1.31,1.31,0,0,1,0-.53,1.3,1.3,0,0,1,.24-.5,1.19,1.19,0,0,1,.42-.35,1.39,1.39,0,0,1,.52-.14,1.63,1.63,0,0,1,.55.06,1.46,1.46,0,0,1,.5.25Zm9.75,4.09,3.47,3.76-.76.71-1.17-1.27-4.69,4.33a6.89,6.89,0,0,1-1.49,1.09,2.93,2.93,0,0,1-1.34.35,2.67,2.67,0,0,1-1.17-.24,3,3,0,0,1-.92-.69,3.3,3.3,0,0,1-.88-2.78l1.32-.08a.27.27,0,0,1-.08.16.35.35,0,0,0-.1.17v.3a.88.88,0,0,0,0,.3,2.32,2.32,0,0,0,.12.39q.08.21.18.41a1.53,1.53,0,0,0,.25.36,1.45,1.45,0,0,0,1.35.53,4.23,4.23,0,0,0,1.89-1.19l4.7-4.35-1.46-1.58.76-.71ZM146.17,55l-1.33-.15a.16.16,0,0,1,.08-.16.37.37,0,0,0,.13-.12,2.49,2.49,0,0,0,.24-1.2,3.11,3.11,0,0,0-.45-1.41,2,2,0,0,0-1.1-1,1.49,1.49,0,0,0-1.27.1,1.59,1.59,0,0,0-.52.46,1.92,1.92,0,0,0-.28.64,3.51,3.51,0,0,0-.07,1q0,.61.16,1.52a9.73,9.73,0,0,1,.1,1.52,3.63,3.63,0,0,1-.19,1.1,2.3,2.3,0,0,1-.46.79,3.08,3.08,0,0,1-.75.59,3.32,3.32,0,0,1-1.11.39A2.86,2.86,0,0,1,138.1,59a3.48,3.48,0,0,1-1.22-.63A4.44,4.44,0,0,1,135.79,57a4.54,4.54,0,0,1-.5-3.75h1.49a.19.19,0,0,1-.11.17.32.32,0,0,0-.14.14,3.24,3.24,0,0,0-.2,1.4,3.73,3.73,0,0,0,.54,1.64,2.44,2.44,0,0,0,.61.72,2.39,2.39,0,0,0,.75.41,2.06,2.06,0,0,0,.82.09,1.91,1.91,0,0,0,.8-.25,1.59,1.59,0,0,0,.48-.41,1.48,1.48,0,0,0,.26-.59,3.4,3.4,0,0,0,0-.9q0-.55-.16-1.41a9.66,9.66,0,0,1-.13-1.61,4.86,4.86,0,0,1,.15-1.17,2.14,2.14,0,0,1,.41-.83,2.56,2.56,0,0,1,.7-.58,2.61,2.61,0,0,1,1.13-.35,3,3,0,0,1,1.17.15,3.3,3.3,0,0,1,1.09.63,4,4,0,0,1,.87,1.06,4.11,4.11,0,0,1,.54,1.68,4,4,0,0,1-.21,1.71Z"/><path class="d" d="M54.09,144.84h61"/><path class="e" d="M120.26,144.41c.42.2.43.54,0,.75L114.6,148c-.42.21-.75,0-.75-.47v-5.36a.49.49,0,0,1,.75-.48l5.66,2.72Z"/><path class="d" d="M59.46,140.79l4.09,4.05"/><path class="d" d="M56.48,140.79l4.09,4.05"/><path class="d" d="M53.49,140.79l4.09,4.05"/><path class="d" d="M57.58,144.84l-4.09,4.05"/><path class="d" d="M60.57,144.84l-4.09,4.05"/><path class="d" d="M63.55,144.84l-4.09,4.05"/><path class="d" d="M62.45,140.79l4.09,4.05"/><path class="d" d="M66.54,144.84l-4.09,4.05"/></svg>