<svg xmlns="http://www.w3.org/2000/svg" viewBox="0 0 202 164"><defs><style>.a{fill:#5c4863;}.b{fill:#dd5a6f;}</style></defs><title>sassdoc</title><path class="a" d="M50.75,78.76c8.08,0,12.08-4.27,12.08-9.48,0-12.41-20.29-7.47-20.29-15.55,0-3.34,3-5.87,8-5.87,4.27,0,7.74,1.74,9.61,4.27l1.94-2.47c-2.34-2.6-6-4.74-11.55-4.74-7.27,0-11.48,4-11.48,8.94,0,11.61,20.36,6.61,20.36,15.42,0,3.74-3.2,6.54-8.61,6.54A13.43,13.43,0,0,1,40.4,71.08l-2.07,2.54c3.2,3.6,7.21,5.14,12.41,5.14Zm45-.8V55.27c0-7.21-5.21-10.34-11.75-10.34a15.65,15.65,0,0,0-12.41,5.41l1.94,2.4A12.58,12.58,0,0,1,83.65,48c4.74,0,8.61,2.6,8.61,7.41v6.54a13.94,13.94,0,0,0-10.95-4.6C75.71,57.34,70,61,70,68s5.74,10.74,11.28,10.74a14,14,0,0,0,10.95-4.61V78ZM82.52,76c-5.27,0-8.81-3.4-8.81-7.94s3.54-8,8.81-8a11.91,11.91,0,0,1,9.74,4.47v7.07A12.05,12.05,0,0,1,82.52,76Zm33.64,2.74c8.08,0,12.08-4.27,12.08-9.48,0-12.41-20.29-7.47-20.29-15.55,0-3.34,3-5.87,8-5.87,4.27,0,7.74,1.74,9.61,4.27l1.94-2.47c-2.34-2.6-6-4.74-11.55-4.74-7.27,0-11.48,4-11.48,8.94,0,11.61,20.36,6.61,20.36,15.42,0,3.74-3.2,6.54-8.61,6.54a13.43,13.43,0,0,1-10.41-4.74l-2.07,2.54c3.2,3.6,7.21,5.14,12.41,5.14Zm30.63,0c8.08,0,12.08-4.27,12.08-9.48,0-12.41-20.29-7.47-20.29-15.55,0-3.34,3-5.87,8-5.87,4.27,0,7.74,1.74,9.61,4.27l1.94-2.47c-2.34-2.6-6-4.74-11.55-4.74-7.27,0-11.48,4-11.48,8.94,0,11.61,20.36,6.61,20.36,15.42,0,3.74-3.2,6.54-8.61,6.54a13.43,13.43,0,0,1-10.41-4.74l-2.07,2.54c3.2,3.6,7.21,5.14,12.41,5.14ZM55.36,128c12.1,0,20.54-7.68,20.54-19.43S67.46,89.21,55.3,89.21H40V128Zm-.06-7.27h-7V96.48h7.1c7.91,0,12.1,5.29,12.1,12.1,0,6.63-4.48,12.16-12.16,12.16Zm44.92,8c11.69,0,20.25-8.38,20.25-20.07s-8.55-20.07-20.25-20.07-20.31,8.38-20.31,20.07,8.55,20.07,20.31,20.07Zm0-7.33c-7.21,0-11.81-5.53-11.81-12.74S93,95.9,100.22,95.9,112,101.37,112,108.64s-4.6,12.74-11.75,12.74Zm44.92,7.33a17.78,17.78,0,0,0,16.17-9.54l-7.1-3.43a10.5,10.5,0,0,1-9.08,5.64c-7.1,0-12.22-5.41-12.22-12.74S138,95.9,145.14,95.9a10.5,10.5,0,0,1,9.08,5.64l7.1-3.49a17.64,17.64,0,0,0-16.17-9.48c-11.7,0-20.71,8.09-20.71,20.07s9,20.07,20.71,20.07Z"/><path class="b" d="M27.4,44.93q-.25.74-.56,1.49a6.46,6.46,0,0,1-.71,1.3,2.85,2.85,0,0,1-.9.84,1.25,1.25,0,0,1-1.05.09q-.74-.12-.84-1.09a4.54,4.54,0,0,1,.22-1.89q.43-1.49,1.27-3.94t1.92-5.37q1.09-2.92,2.3-6t2.33-6q1.12-2.85,2-5.18t1.43-3.63a1.6,1.6,0,0,1,.56-.62,1.38,1.38,0,0,1,.78-.25,1.53,1.53,0,0,1,.81.25,1.74,1.74,0,0,1,.65.81,3.6,3.6,0,0,1,.06,2.54q-.43,1-1.24,3.07L34.62,26q-1,2.61-2.14,5.52t-2.11,5.55q-1,2.64-1.8,4.75l-1.18,3.1ZM60.46,29.36q-1.24-.93-2.7-2t-3.07-2.17q1.05,3.78,2.23,7.2a1.64,1.64,0,0,1-.16,1.3,1,1,0,0,1-.84.56,3.75,3.75,0,0,1-1.64-.74A3.17,3.17,0,0,1,53.14,32a16.65,16.65,0,0,1-.62-1.8l-.87-2.92q-1.05,1.55-2,3T48,33.21a1.72,1.72,0,0,1-1.12.78.94.94,0,0,1-.93-.28,3.88,3.88,0,0,1-.53-1.77,3,3,0,0,1,.34-1.83l1.12-1.8q.81-1.3,2-3-1.3.31-2.54.65t-2.48.65a1.75,1.75,0,0,1-1.3-.25.9.9,0,0,1-.5-.87A3,3,0,0,1,42.87,24a3.47,3.47,0,0,1,1.52-.9q.62-.19,2-.53l3.19-.78q-1.24-.74-2.45-1.52T44.7,18.82a1.55,1.55,0,0,1-.78-1.12,1,1,0,0,1,.28-1,2.82,2.82,0,0,1,1.64-.4,3.2,3.2,0,0,1,1.71.53,17.67,17.67,0,0,1,1.74,1.05q-.19-1.05-.31-2T48.8,14a1.65,1.65,0,0,1,.31-1.18A1.28,1.28,0,0,1,50,12.3a1.32,1.32,0,0,1,1.05.28A2.53,2.53,0,0,1,52,14.1q.25,1.18.56,2.42t.62,2.67q1.24-1.67,2.42-3.16a29.58,29.58,0,0,1,2.23-2.54,1.81,1.81,0,0,1,1.12-.56,1.16,1.16,0,0,1,1,.31,1.71,1.71,0,0,1,.47,1,2.14,2.14,0,0,1-.53,1.67q-.68.93-1.55,2.08t-1.8,2.45q1.61-.31,3.16-.47t2.92-.22a2.61,2.61,0,0,1,1.18.25.93.93,0,0,1,.56.74,1.56,1.56,0,0,1-.37,1.05,2.24,2.24,0,0,1-1.55.81L60.12,23q-1.21.19-2.45.43,1.43,1.05,2.67,2.08t2.3,2a2.44,2.44,0,0,1,.65,1,1.06,1.06,0,0,1-.15,1,1.93,1.93,0,0,1-1.05.43,2.17,2.17,0,0,1-1.61-.5Zm25.19,0q-1.24-.93-2.7-2t-3.07-2.17q1.05,3.78,2.23,7.2a1.64,1.64,0,0,1-.16,1.3,1,1,0,0,1-.84.56,3.75,3.75,0,0,1-1.64-.74A3.17,3.17,0,0,1,78.33,32a16.65,16.65,0,0,1-.62-1.8l-.87-2.92q-1.05,1.55-2,3t-1.71,2.85a1.72,1.72,0,0,1-1.12.78.94.94,0,0,1-.93-.28,3.88,3.88,0,0,1-.53-1.77,3,3,0,0,1,.34-1.83l1.12-1.8q.81-1.3,2-3-1.3.31-2.54.65T69,26.57a1.75,1.75,0,0,1-1.3-.25.9.9,0,0,1-.5-.87A3,3,0,0,1,68.06,24a3.47,3.47,0,0,1,1.52-.9q.62-.19,2-.53l3.19-.78q-1.24-.74-2.45-1.52t-2.45-1.46a1.55,1.55,0,0,1-.78-1.12,1,1,0,0,1,.28-1,2.82,2.82,0,0,1,1.64-.4,3.2,3.2,0,0,1,1.71.53,17.67,17.67,0,0,1,1.74,1.05q-.19-1.05-.31-2T74,14a1.65,1.65,0,0,1,.31-1.18,1.28,1.28,0,0,1,.87-.56,1.32,1.32,0,0,1,1.05.28,2.53,2.53,0,0,1,.93,1.52q.25,1.18.56,2.42t.62,2.67q1.24-1.67,2.42-3.16A29.58,29.58,0,0,1,83,13.48a1.81,1.81,0,0,1,1.12-.56,1.16,1.16,0,0,1,1,.31,1.71,1.71,0,0,1,.47,1A2.14,2.14,0,0,1,85,15.9q-.68.93-1.55,2.08t-1.8,2.45q1.61-.31,3.16-.47t2.92-.22a2.61,2.61,0,0,1,1.18.25.93.93,0,0,1,.56.74,1.56,1.56,0,0,1-.37,1.05,2.24,2.24,0,0,1-1.55.81L85.3,23q-1.21.19-2.45.43,1.43,1.05,2.67,2.08t2.3,2a2.44,2.44,0,0,1,.65,1,1.06,1.06,0,0,1-.15,1,1.93,1.93,0,0,1-1.05.43,2.17,2.17,0,0,1-1.61-.5Z"/></svg>