<svg xmlns="http://www.w3.org/2000/svg" viewBox="0 0 246 164"><defs><style>.a{fill:#cd6799;}</style></defs><path class="a" d="M183.8,76.81a34.58,34.58,0,0,0-15.13,3.51c-1.56-3.08-3.11-5.83-3.39-7.84a21.05,21.05,0,0,1-.31-6.59c.37-2.81,2-6.8,2-7.11S166.6,57,163.24,57s-6.25.64-6.59,1.53a36.81,36.81,0,0,0-1.4,5c-.58,3.05-6.71,13.94-10.22,19.64a21.19,21.19,0,0,1-2.32-5.73,21.05,21.05,0,0,1-.31-6.59c.37-2.81,2-6.8,2-7.11S144,62,140.67,62s-6.25.64-6.59,1.53-.7,3-1.4,5-8.85,20.19-11,24.89c-1.1,2.41-2,4.33-2.71,5.64h0a1.39,1.39,0,0,1-.12.24c-.58,1.13-.92,1.74-.92,1.74v0c-.46.82-.95,1.59-1.19,1.59s-.52-2.2.06-5.19c1.22-6.31,4.12-16.14,4.09-16.47,0-.18.55-1.89-1.89-2.78a3,3,0,0,0-3.45.58c-.21,0-.37.52-.37.52s2.65-11-5.06-11c-4.82,0-11.47,5.28-14.76,10-2.07,1.13-6.5,3.54-11.23,6.13-1.8,1-3.66,2-5.4,3-.12-.12-.24-.27-.37-.4-9.33-10-26.6-17-25.87-30.41.27-4.88,2-17.69,33.16-33.25,25.68-12.66,46.12-9.15,49.66-1.37,5.06,11.1-11,31.72-37.49,34.71-10.13,1.13-15.43-2.78-16.78-4.24s-1.62-1.62-2.14-1.31c-.85.46-.31,1.83,0,2.62.79,2.07,4.06,5.73,9.58,7.53,4.88,1.59,16.75,2.47,31.11-3.08,16.08-6.22,28.64-23.52,25-38C140.88,5.43,116.48.58,93.39,8.78,79.66,13.66,64.78,21.35,54.07,31.36,41.35,43.25,39.34,53.59,40.16,57.92c3,15.37,24.16,25.38,32.64,32.79l-1.16.64c-4.24,2.1-20.41,10.55-24.43,19.49-4.58,10.13.73,17.39,4.24,18.36,10.89,3,22.08-2.41,28.09-11.38s5.28-20.62,2.5-26a.64.64,0,0,0-.12-.18l3.32-2c2.17-1.28,4.3-2.47,6.13-3.45a40.2,40.2,0,0,0-2.17,11.1c-.46,5.73,1.89,13.18,5,16.11a5.49,5.49,0,0,0,4,1.31c3.6,0,5.22-3,7-6.53,2.2-4.33,4.18-9.36,4.18-9.36s-2.47,13.6,4.24,13.6c2.44,0,4.91-3.17,6-4.79v0s.06-.09.18-.31l.4-.64v-.06c1-1.71,3.17-5.58,6.44-12,4.21-8.3,8.27-18.67,8.27-18.67a53,53,0,0,0,1.62,6.74A63.48,63.48,0,0,0,140,90.62c-1,1.37-1.59,2.14-1.59,2.14l0,0c-.79,1-1.65,2.17-2.59,3.26-3.32,4-7.29,8.51-7.84,9.82-.64,1.56-.49,2.68.73,3.6.88.67,2.47.76,4.09.67a18.77,18.77,0,0,0,6.13-1.4,20.58,20.58,0,0,0,5.28-2.78,11.81,11.81,0,0,0,5.06-10.4,21,21,0,0,0-1.92-7.35c.31-.43.58-.85.88-1.28a139.73,139.73,0,0,0,9.15-15.8,53,53,0,0,0,1.62,6.74,45.15,45.15,0,0,0,3,6.71c-4.85,3.93-7.84,8.51-8.91,11.5-1.92,5.55-.43,8.05,2.41,8.63a8.5,8.5,0,0,0,4.45-.92,20.29,20.29,0,0,0,5.64-2.9c3.26-2.41,6.41-5.77,6.22-10.31a19.49,19.49,0,0,0-1.4-6.1,32,32,0,0,1,16.2-1.86C201.16,84.34,204,93.4,203.47,97.21a9.65,9.65,0,0,1-4.61,6.53c-1,.64-1.34.85-1.25,1.31.12.67.61.64,1.46.52,1.19-.21,7.63-3.08,7.9-10.1.46-9-8.08-18.76-23.18-18.67Zm-112,37.76c-4.82,5.25-11.53,7.23-14.43,5.55-3.11-1.8-1.89-9.55,4-15.1a76.84,76.84,0,0,1,11.32-8.45l3-1.8.34-.18h0l.73-.46a20.83,20.83,0,0,1-5,20.44Zm35.08-23.85c-1.68,4.09-5.19,14.55-7.32,14-1.83-.49-3-8.42-.37-16.26A36.94,36.94,0,0,1,104.89,78c2.62-2.93,5.52-3.9,6.22-2.71.88,1.56-3.2,12.9-4.24,15.47Zm28.95,13.85c-.7.37-1.37.61-1.68.43s.31-.61.31-.61,3.63-3.9,5.06-5.67c.82-1,1.8-2.26,2.84-3.63v.4c0,4.67-4.51,7.81-6.53,9.09Zm22.33-5.09c-.52-.37-.43-1.59,1.31-5.4a20.32,20.32,0,0,1,5-6.41,8.63,8.63,0,0,1,.49,2.81c0,5.89-4.24,8.08-6.77,9Z"/></svg>