<svg xmlns="http://www.w3.org/2000/svg" viewBox="0 0 164 164"><defs><style>.a{fill:#0e0f0d;}.b{fill:#e1c5a2;}.c{fill:#a89983;}.d{fill:#fff;}.e{fill:#e0d896;}.f{fill:#d7c184;}.g{fill:#9f8f78;}.h{fill:#6e6a67;}.i{fill:#93232c;}.j{fill:#731b2a;}</style></defs><path class="a" d="M123.79,68.32c0-.33-.09-.66-.16-1a10.37,10.37,0,0,0-.24-1l-.25-.4a17.54,17.54,0,0,0-3.31-2c-.94-.45-1.9-.83-2.87-1.19a41,41,0,0,0-13.47-18.8,35.16,35.16,0,0,0-43,0A41,41,0,0,0,47,62.75c-1,.36-1.93.75-2.87,1.19a17.48,17.48,0,0,0-3.32,2l-.25.4c-.1.36-.17.68-.24,1s-.11.66-.16,1c-.09.65-.16,1.32-.19,2a24.88,24.88,0,0,0,.12,4,25.22,25.22,0,0,0,.74,3.92c.18.64.39,1.28.64,1.91.12.32.26.63.41.94.07.16.15.31.24.47.18.32.21.38.29.49l.34.32.61.3.59.26.32.13a49,49,0,0,0-8.12,9.69l-3.19,5,4.47-3.93a73.57,73.57,0,0,1,10.08-7l.09.72a26.15,26.15,0,0,0-3,1.73c-1,.8-1,2.05-.76,4.38a40.43,40.43,0,0,0,1.18,5.64c1,3.66,1.8,4.3,2.47,4.46a5,5,0,0,0,1.13.11,14.54,14.54,0,0,0,3.73-.54,36.69,36.69,0,0,0,4.87,9.85l-.29.09c-1.22-.57-5.49-2.54-6.92-3.19l-3-1.35,1.77,2.77c.13.2,3.19,5,5.69,8.19,2.34,3,5.54,6.07,11.57,6.07a20.75,20.75,0,0,0,2.27-.13l4.18-.5a28.33,28.33,0,0,0,20,0,29.2,29.2,0,0,0,5-2.46c2.56-.61,5.35-1.28,6.73-1.67l.79-.19c1.92-.44,5.14-1.19,6.86-4.62s4.55-8.77,4.58-8.82l1.32-2.47-2.57,1.12c-.14.06-3.39,1.48-5.08,2.37a48.2,48.2,0,0,0,2.11-5.8,16.5,16.5,0,0,0,3.38.2,5.89,5.89,0,0,0,1.37-.17c.67-.17,1.19-.62,2.16-4.39a42.31,42.31,0,0,0,1.09-5.81c.22-2.39.15-3.67-.83-4.48a22.07,22.07,0,0,0-2.64-1.55,1,1,0,0,1,.62-.12l.66-2.5.76-.31,1.19-.49.59-.26.61-.3.34-.32a3,3,0,0,0,.16-.26c.22-.39.29-.54.37-.7.15-.31.28-.63.41-.94.25-.63.46-1.27.64-1.91a25.16,25.16,0,0,0,.74-3.92,24.65,24.65,0,0,0,.11-4c0-.66-.1-1.32-.19-2Z"/><path class="b" d="M86.15,119.74c-.48.07-1,.13-1.45.17-.31,0-.64,0-.94,0h-.11c.37-.83.66-1.48.87-2,.44.49,1,1.1,1.62,1.75"/><path class="c" d="M85.56,82.44a21.27,21.27,0,0,1-2.39,1.69L80.4,85.8a23.48,23.48,0,0,0-3.34.67.48.48,0,0,0-.14.06.64.64,0,0,0-.29.36l-2.83,9.31L58.7,99.57l-4.76-3.33L52.56,85c2.7-.5,6.31-1.07,10.65-1.56-.46.56-.92,1.14-1.34,1.75l-2.58,3.71L63,86.42a61.69,61.69,0,0,1,6.37-3.53c3.91-.29,8.22-.48,12.83-.48,1.13,0,2.23,0,3.31,0ZM62.05,95.07c1.07-.58,2.29-.49,4.18-.49h1.2c2,0,3.58.17,3.55-2.9s-1.39-5.55-3.35-5.53-3.85,2.53-3.73,5.6a4.86,4.86,0,0,0,.34,1.79,3.09,3.09,0,0,0-2.2,1.55Z"/><path class="c" d="M111.74,85l-1.36,9.53-4.8,3.36L90.5,96.16,87.68,86.9a.63.63,0,0,0-.43-.42,23,23,0,0,0-3.94-.73l.36,0a60,60,0,0,0,11.73-2.8A160,160,0,0,1,111.74,85Zm-9.64,8.82c0-.07-.43-1.31-2.25-1.09a3.87,3.87,0,0,0,.24-1.92c-.24-3.06-2-5.5-4-5.43S92.91,88,93,91.05s1.75,3,3.7,3c2.62,0,4.07-.86,5.38-.22Z"/><path class="d" d="M96.94,88.3a1,1,0,1,1-1-1,1,1,0,0,1,1,1"/><path class="d" d="M68.94,89a1,1,0,1,1-1-1,1,1,0,0,1,1,1"/><path class="b" d="M118.32,89.18a17,17,0,0,0-1.79-1.06L115.26,97a.65.65,0,0,1-.27.43l-1.81,1.26-.11.56c1.78.44,3.5-.84,4.47-1.77a37.13,37.13,0,0,0,1-5.3c.21-2.3,0-2.79-.21-3"/><path class="b" d="M90.39,122.84a8.64,8.64,0,0,1-3.19-2l-.23-.23a19.15,19.15,0,0,1-2.22.32c-.32,0-.62,0-1,0h-.68A8.59,8.59,0,0,1,78.63,124c4.39.75,9.22-.4,11.75-1.17"/><path class="b" d="M51.75,101.14l-.12-.4L49.28,99.1a.64.64,0,0,1-.26-.44l-1.15-9.3a19.65,19.65,0,0,0-2.09,1.23c-.23.19-.4.66-.15,2.88A38.07,38.07,0,0,0,47,99.61a6.3,6.3,0,0,0,4.75,1.53"/><path class="b" d="M86.87,100.72a.63.63,0,0,1-.53-.45l-2.9-9.55a8.33,8.33,0,0,0-2.56,0L78.06,100a.63.63,0,0,1-.47.43l-1.35.3a2.26,2.26,0,0,1-1.75,1.56c-2,.61-14.78,4.42-16.24,4.21a13.73,13.73,0,0,1-3.66-1.73c-.48-1.13-.74-1.89-.8-2.08h0a41.32,41.32,0,0,0,5.22,10c3.63-1.07,6.76-2.07,7.76-2.38,2-3.15,4.95-6.27,7-6.38l1.09,0a24.43,24.43,0,0,1,2.87.18,3.59,3.59,0,0,1-1-1.86,8.81,8.81,0,0,0,6,1.63,10.58,10.58,0,0,0,5.44-2.36l.07-.59-1.35-.15"/><path class="b" d="M89.6,101.93a2.82,2.82,0,0,1-1.41-.77l0,.31a3.42,3.42,0,0,1-1.47,2.5,20,20,0,0,1,4.77-1.14,2.34,2.34,0,0,1,1.69.69l.23.19c2.16,1.7,4.77,3.77,5.53,4.38.88.1,3.68.42,5.44.58,1,.09,1.93.17,2.83.17l.82,0a44.76,44.76,0,0,0,2.54-5.91c-1,.73-3.41,2.33-4.52,2.53-1.45.27-14.37-3-16.41-3.51"/><path class="e" d="M122.12,68.51c0-.31-.06-.61-.1-.91s-.06-.44-.1-.65a18.49,18.49,0,0,0-2.71-1.85A35.15,35.15,0,0,0,116,63.43c-1.11-.52-2.25-1-3.39-1.46q-.86-.35-1.73-.67c-.58-.23-1.16-.44-1.74-.65,1.23.2,2.44.48,3.65.79.78.2,1.56.43,2.34.67C109.56,47.71,96.39,38.33,82,38.33S54.43,47.71,48.92,62.12c.77-.24,1.56-.47,2.34-.67,1.21-.31,2.42-.59,3.65-.79-.59.21-1.17.42-1.75.65s-1.15.44-1.73.67c-1.15.46-2.28.94-3.4,1.46a35.75,35.75,0,0,0-3.26,1.67,18.58,18.58,0,0,0-2.71,1.85c0,.21-.07.43-.1.65s-.07.61-.1.91c-.05.61-.07,1.23-.08,1.85a27,27,0,0,0,1,7.31c.16.59.35,1.17.56,1.73.11.28.23.56.35.83l.19.39.08.15.27.14.55.26,1.08.5.06-.05-1-3.87c.22-.06,2.15-.56,5.47-1.19l-.8-.17a17,17,0,0,1-2.23-.71,10.29,10.29,0,0,1-1.05-.51,3.62,3.62,0,0,1-.93-.71c3.66,1.19,11.21.65,17.93,0a184.13,184.13,0,0,1,18.49-1.06,184.05,184.05,0,0,1,18.49,1.06c6.72.7,14.28,1.23,17.93,0a3.6,3.6,0,0,1-.92.71,10.55,10.55,0,0,1-1.05.51,16.88,16.88,0,0,1-2.23.71l-.34.08c3.65.68,5.78,1.23,6,1.29l-1,3.69.59-.26.55-.26.28-.14.07-.15c.07-.13.13-.26.19-.39s.24-.55.35-.83c.21-.56.4-1.14.57-1.73a27.4,27.4,0,0,0,1-7.31c0-.62,0-1.23-.08-1.85"/><path class="f" d="M97.14,61.35a26.18,26.18,0,0,1-.75,7.44.6.6,0,0,0,0,.32c-1-.1-2-.19-2.93-.27a16.08,16.08,0,0,0,1.39-5.61,25.68,25.68,0,0,0,2.3-1.88"/><path class="f" d="M69.16,63.22a16,16,0,0,0,1.39,5.61q-1.47.12-2.93.27a.62.62,0,0,0,0-.32,26.36,26.36,0,0,1-.75-7.44,25.92,25.92,0,0,0,2.3,1.88"/><path class="f" d="M109.15,71.39l0,.08.32.1a24.64,24.64,0,0,1,2.67,1c-1.44-.94-2.36-3.64-2.87-5.71a26,26,0,0,1-.11,4.53"/><path class="f" d="M65.66,60.83l-9.34,2.66a31.13,31.13,0,0,0-.3,7.37l0,0A27.37,27.37,0,0,1,57,65.35c.32-.78,2.27-1.28,3.76-1.63s3.87-1.07,4.34,1a15.06,15.06,0,0,0,1.05,3.17,29.07,29.07,0,0,1-.49-7.08"/><path class="f" d="M98.34,60.83a28.53,28.53,0,0,1-.56,7.42A14.48,14.48,0,0,0,99,64.74c.46-2.1,2.84-1.39,4.33-1s3.44.85,3.76,1.63a24.85,24.85,0,0,1,.9,5.22,31.9,31.9,0,0,0-.32-7.08l-9.34-2.65"/><path class="f" d="M69.08,61.63c.33.27.68.52,1,.75a.62.62,0,0,1,.27.5,14.82,14.82,0,0,0,1.43,5.73.91.91,0,0,1,0,.12c3.38-.23,6.77-.32,10.15-.32s6.77.1,10.15.33a.62.62,0,0,1,0-.13,14.8,14.8,0,0,0,1.43-5.73.62.62,0,0,1,.27-.5c.33-.22.66-.47,1-.73l0-.12a47.64,47.64,0,0,0-1.41-16.35c0,2.14-.55,20.5-5.11,20.5H75.83C71,65.68,70.61,45,70.61,45l-.25.73a47.42,47.42,0,0,0-1.27,15.91"/><path class="f" d="M54.87,71.47l0-.08a25.74,25.74,0,0,1-.11-4.53c-.51,2.07-1.43,4.78-2.87,5.72a24.38,24.38,0,0,1,2.68-1l.32-.1"/><path class="g" d="M113.08,99.23c-.08.4-.14.72-.27,1.21a11.07,11.07,0,0,0,3.54.27,10.53,10.53,0,0,0,1.2-3.25c-1,.92-2.7,2.21-4.47,1.77"/><path class="g" d="M75.93,124.61a22.72,22.72,0,0,0,7.5.81,30,30,0,0,0,9.19-2.11,8.52,8.52,0,0,1-2.23-.47c-2.53.77-7.36,1.92-11.75,1.17a12.36,12.36,0,0,1-2.16.51l-.54.09"/><path class="g" d="M51.91,101.7l-.16-.56A6.29,6.29,0,0,1,47,99.61a8.23,8.23,0,0,0,1.06,2.49,11.62,11.62,0,0,0,3.85-.41"/><path class="g" d="M54.59,104.77a13.71,13.71,0,0,0,3.66,1.73c1.46.21,14.22-3.6,16.24-4.21a2.26,2.26,0,0,0,1.75-1.56l-18.42,4.1h-.14a.64.64,0,0,1-.36-.11l-.72-.5-2.15-1.51h0l-.87-.61,0,.15.15.43h0c.06.18.33.95.8,2.08"/><path class="g" d="M111.09,101.23c.12-.43.23-.87.34-1.32l-.64.45-1.72,1.21-1.86,1.31a.66.66,0,0,1-.32.11h-.11l-18.55-2.11,0,.29a2.82,2.82,0,0,0,1.41.77c2,.53,15,3.78,16.41,3.51,1.11-.21,3.48-1.8,4.52-2.53l0-.07.24-.7.29-.9"/><path class="h" d="M91.46,76.24l-.48.61a40.16,40.16,0,0,1-3.55,3.93q-2.53-.08-5.19-.08c-2.94,0-5.76.08-8.44.21a67.23,67.23,0,0,1,13.25-4c1.44-.27,2.91-.49,4.4-.64"/><path class="h" d="M69.33,77.93A33.6,33.6,0,0,0,65,81.56c-3.79.38-7.09.84-9.81,1.28a74.47,74.47,0,0,1,14.17-4.91"/><path class="h" d="M115.59,85.75,114,96.53l-7.38,5.17L87.43,99.51,84.53,90a.63.63,0,0,0-.5-.44,10.3,10.3,0,0,0-3.74,0,.64.64,0,0,0-.5.44L77,99.28l-19.13,4.26-7.58-5.31-1.5-12.09,1-.55,1.58-.32,1.41,11.41a.62.62,0,0,0,.27.44l5.22,3.66a.64.64,0,0,0,.36.11l.14,0,15.73-3.5.16-.06a.63.63,0,0,0,.31-.38l2.84-9.33a19.68,19.68,0,0,1,4.42-.65,19.71,19.71,0,0,1,4.42.65l2.83,9.33a.64.64,0,0,0,.53.45l15.73,1.79a.63.63,0,0,0,.43-.11l5.22-3.65a.65.65,0,0,0,.26-.43L113,85.22c1,.2,1.92.38,2.61.53"/><path class="h" d="M117.53,79l-1.35,5.14A148.1,148.1,0,0,0,99,81.52a41.73,41.73,0,0,0,8-4.41c4.93.7,8.55,1.44,10.51,1.89"/><path class="h" d="M47,79l.38,1.42c1.05-.84,2-1.53,2.83-2.09-1.33.25-2.41.49-3.21.67"/><path class="i" d="M100.1,76.13Q97,76,93.87,75.83c-.12.18-.36.53-.71,1A39.57,39.57,0,0,1,87,83.44c2.11-.67,10.5-3.48,14.74-7.2l-1.7-.1"/><path class="i" d="M84.9,75.58h0l-3.15,0h0c-1.55,0-3.09,0-4.64.05L74.26,77l0,0a33.53,33.53,0,0,0-7.7,5.47l1-.5a49.11,49.11,0,0,1,15.07-6.39l2.34,0"/><path class="i" d="M67.37,75.93l-4,.2q-2.3.13-4.58.3c-.76.06-1.52.12-2.28.2l-.65.07c-2,1.19-9.61,6-14.85,12.24l.28-.32a59.83,59.83,0,0,1,26-12.7"/><path class="i" d="M111.24,109.94l-.17.09a8.34,8.34,0,0,1-3.89.76c-1,0-1.94-.08-3-.18-2.13-.19-5.73-.62-5.76-.62l-.28,0-.22-.18s-3.19-2.54-5.74-4.54l-.28-.23c-.27-.23-.27-.23-.43-.23-.82,0-3.2.74-8.4,2.35l-.32.1-.32-.12a24.27,24.27,0,0,0-7.54-1.28l-1,0c-.41,0-2.71,1.11-5.65,5.77l-.19.3-.34.11s-5.11,1.65-10.49,3.19l-.35.1-.33-.15-4.13-1.9.44.2c2,1.7,5.75,5,6.17,5.43l.24.24L59,118.8h0a11.28,11.28,0,0,0,2.9,2,6.36,6.36,0,0,0,1.65.54,5.17,5.17,0,0,0,.85.07l.89,0c1.18-.06,2.37-.15,3.56-.27s2.38-.23,3.56-.37,2.37-.28,3.54-.46c.59-.09,1.17-.18,1.74-.31a4.67,4.67,0,0,0,.8-.24,3.47,3.47,0,0,0,.66-.48c.44-.38.87-.8,1.29-1.22s.84-.85,1.25-1.29c.7-.73,1.29-1.5,2-2.25l.26-.29h0l.42.31c.81.6,1.65,1.26,2.45,1.82A37.36,37.36,0,0,0,90,118.47a5,5,0,0,0,.82.38l.09,0,.1,0,.19,0h.45c.61,0,1.24-.13,1.86-.23,1.25-.19,2.5-.42,3.74-.67s2.49-.49,3.72-.77,2.48-.55,3.71-.86a10.25,10.25,0,0,0,1.77-.58,6.84,6.84,0,0,0,1.55-1,12,12,0,0,0,2.43-2.93h0a13.2,13.2,0,0,0,.84-1.9"/><path class="i" d="M88,51.35h2.19V46.9h-16v4.45h2.19V49.09h4.53V62.85H79V65.4h6.31V62.85H83.46V49.09H88v2.26"/><path class="j" d="M104.58,76.43h0l-2.72-.19h-.05C97.54,80,89.16,82.77,87,83.44l-.12.1a49.22,49.22,0,0,0,11-3.33,36.94,36.94,0,0,0,6.2-3.46l.46-.33"/><path class="j" d="M82.56,75.56a49.1,49.1,0,0,0-15.07,6.39c1.55-.79,3.38-1.65,5.44-2.52h0l.64-.26.21-.09.56-.22.31-.12.51-.2.39-.15.48-.18.45-.16.44-.16.51-.18.41-.14.61-.2.34-.11,1-.31q1.06-.33,2.17-.63c1-.26,1.94-.51,2.94-.73l-2.34,0"/><path class="j" d="M67.37,75.93a59.83,59.83,0,0,0-26,12.7l-.28.32A85.27,85.27,0,0,1,64.93,77.33L66,77c1.74-.49,3.53-.91,5.37-1.27l-3.94.16"/><path class="j" d="M113.12,109l-.1,0-.2.09-.16.07-.13.06-.2.09-.08,0-.22.11,0,0-.24.12h0l-.48.24a13.2,13.2,0,0,1-.84,1.9h0a12.06,12.06,0,0,1-2.43,2.92,6.84,6.84,0,0,1-1.55,1,10.3,10.3,0,0,1-1.77.58c-1.23.31-2.46.6-3.71.86s-2.48.53-3.72.77-2.49.47-3.74.67c-.62.1-1.25.19-1.86.23h-.45l-.19,0-.1,0-.09,0a4.88,4.88,0,0,1-.82-.38,37.68,37.68,0,0,1-3.18-2.07c-.81-.57-1.64-1.22-2.45-1.82l-.07.1h0l.15.13h0l-.11-.08.68.81.08.09c.35.41,1.8,2.09,3.52,3.8a6.48,6.48,0,0,0,4.71,2,8.39,8.39,0,0,0,1.93-.24l1.95-.47c2-.48,4.24-1,5.72-1.4l.29-.08.57-.15c.27-.08.56-.15.87-.22,1.79-.42,4.25-1,5.55-3.59.36-.72.76-1.51,1.18-2.32.58-1.13,1.18-2.28,1.72-3.31l.25-.48h0l.13-.25-.31.14"/><path class="j" d="M83.75,114.65l-.12-.11c-.67.75-1.27,1.52-2,2.25-.41.44-.83.87-1.25,1.29s-.85.84-1.29,1.22a3.47,3.47,0,0,1-.66.48,4.63,4.63,0,0,1-.8.24c-.57.13-1.16.22-1.74.31-1.17.18-2.36.33-3.54.46s-2.37.26-3.56.37-2.38.21-3.56.27l-.89,0a5.12,5.12,0,0,1-.85-.07,6.36,6.36,0,0,1-1.65-.54,11.31,11.31,0,0,1-2.9-2h0c.12.14.25.28.37.42l-.09-.08-.24-.24c-.42-.45-4.2-3.73-6.17-5.43l-.44-.2,1.13,1.65c.58.83,1.19,1.69,1.78,2.49l.8,1.05c2.15,2.76,4.85,5.31,10,5.31a18.32,18.32,0,0,0,2-.12l.48-.06.45-.05c4.51-.52,5.74-.74,6.43-.86l.49-.08.2,0a10.89,10.89,0,0,0,3-.92,5.08,5.08,0,0,0,2.53-2.36c1.25-2.79,1.5-3.46,1.51-3.48l.44-1.17"/><path class="a" d="M96,89.31a1,1,0,1,0-1-1,1,1,0,0,0,1,1Zm6.14,4.5c-1.32-.64-2.76.17-5.38.22-2,.07-3.59.09-3.7-3s1.14-5.61,3.1-5.68,3.74,2.37,4,5.43a3.87,3.87,0,0,1-.24,1.92c1.82-.22,2.23,1,2.25,1.09Z"/><path class="a" d="M68,90.05a1,1,0,1,0-1-1,1,1,0,0,0,1,1Zm3,1.61c0,3.07-1.6,2.88-3.55,2.9h-1.2c-1.9,0-3.11-.09-4.18.49a3.09,3.09,0,0,1,2.2-1.55,4.85,4.85,0,0,1-.34-1.79c-.12-3.07,1.77-5.58,3.73-5.6S71,88.59,71,91.66Z"/><path class="a" d="M108,70.56c0,.27,0,.46-.05.57-.77-.21-1.55-.4-2.33-.58a77.48,77.48,0,0,0-7.82-1.29l-.28,0,0-.12c.08-.29.15-.57.21-.86a28.53,28.53,0,0,0,.56-7.42l9.34,2.66a31.92,31.92,0,0,1,.32,7.08ZM96.39,68.78a.6.6,0,0,0,0,.32c-1-.1-2-.19-2.93-.27a16.08,16.08,0,0,0,1.39-5.61,25.73,25.73,0,0,0,2.3-1.88,26.18,26.18,0,0,1-.75,7.44Zm-28.77.32a.62.62,0,0,0,0-.32,26.36,26.36,0,0,1-.75-7.44,25.74,25.74,0,0,0,2.3,1.88,16,16,0,0,0,1.39,5.61q-1.47.12-2.93.27Zm-1.41.15c-1.31.16-2.62.32-3.93.54s-2.6.46-3.89.75c-.78.18-1.56.37-2.33.58,0-.06,0-.16,0-.28a31.13,31.13,0,0,1,.3-7.37l9.34-2.66a29.05,29.05,0,0,0,.49,7.08c.08.4.18.8.29,1.2l0,.11-.28,0ZM113,73l-.23-.11-.39-.19h0l-.25-.14a24.69,24.69,0,0,0-2.67-1l-.32-.1,0-.08a26.06,26.06,0,0,0,.11-4.53,35.69,35.69,0,0,0-.43-4,.61.61,0,0,0-.44-.49L107.06,62c-.29-10.3-4.53-15.14-4.66-15.29,3.79,6.1,3.75,13.33,3.69,15l-8.25-2.35h0l-.11,0h-.19l-.11,0,0,0-.08.05h0l0,0,0,0-.58.55c0-.77,0-2-.06-3.4l0-.42A31.47,31.47,0,0,0,92.9,43.14c0,.06.28.8.6,2a47.65,47.65,0,0,1,1.41,16.35v.09l0,0c-.32.26-.65.51-1,.73a.62.62,0,0,0-.27.5,14.8,14.8,0,0,1-1.43,5.73.63.63,0,0,0-.05.13c-3.38-.23-6.77-.33-10.15-.33s-6.77.1-10.15.32a.88.88,0,0,0,0-.12,14.82,14.82,0,0,1-1.43-5.73.62.62,0,0,0-.27-.5c-.34-.23-.68-.49-1-.75a47.43,47.43,0,0,1,1.27-15.91c.39-1.57.71-2.51.74-2.59-3.71,6.46-3.84,14.26-3.76,17-.35-.33-.57-.54-.57-.55l0,0v0h0l-.08-.05,0,0-.1,0h-.2l-.1,0h0l-8.25,2.35c-.07-1.69-.1-8.92,3.69-15-.13.15-4.37,5-4.66,15.29l-1.32.38a.61.61,0,0,0-.44.49,35.88,35.88,0,0,0-.43,4,25.78,25.78,0,0,0,.11,4.53l0,.08-.32.1a24.41,24.41,0,0,0-2.68,1l-.24.14h0l-.39.19L51,73l-.13.07a14.73,14.73,0,0,1,1.88-.57c.64-.16,1.27-.3,1.91-.42,1.28-.24,2.57-.45,3.87-.6s2.59-.31,3.89-.42,2.6-.22,3.9-.3c5.21-.31,10.43-.41,15.66-.41s10.45.09,15.66.41c1.3.08,2.6.18,3.9.29s2.59.25,3.89.42,2.59.36,3.87.6c.64.12,1.28.26,1.91.42a14.67,14.67,0,0,1,1.88.57L113,73Z"/><path class="a" d="M83.46,49.09V62.85h1.87V65.4H79V62.85h1.87V49.09H76.35v2.26H74.16V46.9h16v4.45H88V49.09H83.46ZM91.84,53V45.25H72.51V53H78V50.74h1.23V61.2H77.37V67H87V61.2H85.11V50.74h1.24V53Z"/></svg>