<svg xmlns="http://www.w3.org/2000/svg" viewBox="0 0 166 164"><defs><style>.a{fill:#2788b5;}.b{fill:#fa930d;}</style></defs><path class="a" d="M87,123c1-1.22,2.12-2.55,3.48-4.12l.68-.78c.85-1,1.55-1.73,2.23-2.47A53.71,53.71,0,0,0,98,110c2.09-2.84,3.43-5,3.21-8.65-.11-1.89-.18-3.18-1.41-4.7a50.76,50.76,0,0,0-3.57-3.64c-1.58-1.52-2.95-3-4.8-4.9s-4.26-6.86-4.26-6.86a31.52,31.52,0,0,1-2.42-8.17l-5.46-28H63.71L56.1,80.43,49.36,45.13H31l16.57,80.21H63l7.73-34.72,6.84,34.72h7.18L87,123"/><path class="b" d="M119.33,49.93c1.62-1.88,3-3.41,4.06-4.8H98.72a65,65,0,0,0-6.15,8.69c-2.25,4.24-4.1,7.43-4.28,15.24l.08,2.52c0,3.72,2.66,9.19,2.66,9.19A33,33,0,0,0,93.77,85h0l.49.65c2.66,3,6.68,6.45,8.46,8.64a10.6,10.6,0,0,1,2.24,6.84c.3,5.06-1.75,8.1-3.93,11.09-3.31,4.51-4.5,5.35-7,8.3-1.62,1.88-3,3.4-4.06,4.78h25.49a68.61,68.61,0,0,0,5.33-8.69c2.25-4.24,4.1-7.43,4.28-15.23l-.08-2.52c0-3.73-2.66-9.2-2.66-9.2a33.67,33.67,0,0,0-2.73-4.27h0l-.49-.65c-2.66-3-6.68-6.45-8.46-8.64a10.61,10.61,0,0,1-2.24-6.84c-.3-5.05,1.75-8.1,3.94-11.09,3.31-4.5,4.5-5.35,7-8.29"/></svg>