<svg xmlns="http://www.w3.org/2000/svg" viewBox="0 0 146 164"><defs><style>.a{fill:#464342;}</style></defs><path class="a" d="M32.68,85.26A40.33,40.33,0,0,0,55.4,121.54L36.17,68.85a40.16,40.16,0,0,0-3.49,16.41Zm67.54-2A21.23,21.23,0,0,0,96.89,72.1c-2-3.32-4-6.13-4-9.45a7,7,0,0,1,6.77-7.16c.18,0,.35,0,.52,0a40.31,40.31,0,0,0-60.91,7.59c.95,0,1.84,0,2.59,0,4.22,0,10.75-.51,10.75-.51A1.67,1.67,0,0,1,52.91,66s-2.18.26-4.61.38L63,110,71.8,83.57,65.52,66.36c-2.17-.13-4.23-.38-4.23-.38-2.17-.13-1.92-3.45.25-3.32,0,0,6.66.51,10.62.51,4.22,0,10.75-.51,10.75-.51A1.67,1.67,0,0,1,83.17,66s-2.19.26-4.61.38L93.13,109.7l4-13.44c1.74-5.58,3.07-9.58,3.07-13ZM73.71,88.79l-12.1,35.15a40.34,40.34,0,0,0,24.78-.64,3.54,3.54,0,0,1-.29-.56l-12.39-34Zm34.67-22.87a30.93,30.93,0,0,1,.27,4.15,38,38,0,0,1-3.07,14.44L93.27,120.11a40.33,40.33,0,0,0,15.11-54.19ZM73,38.26a47,47,0,1,0,47,47,47.05,47.05,0,0,0-47-47Zm0,91.84a44.84,44.84,0,1,1,44.84-44.85A44.9,44.9,0,0,1,73,130.1Z"/></svg>