<svg xmlns="http://www.w3.org/2000/svg" xmlns:xlink="http://www.w3.org/1999/xlink" viewBox="0 0 166 164"><defs><style>.a{fill:none;}.b{fill:#020202;}.c{clip-path:url(#a);}.d{fill:#f4cf8c;}.e{fill:#050505;}.f{fill:#dd002a;}.g{fill:#d8af6f;}.h{fill:#930023;}.i{fill:#b27d30;}.j{fill:#fff;}.k{fill:#c98c28;}.l{fill:#cea063;}.m{fill:#ffb000;}.n{fill:#4f1907;}</style><clipPath id="a"><path class="a" d="M109.09,52.06v-.11l2.53-12.71s-5.63-13-24.54-11.41S65.84,33.76,62.74,39l1.84,8.31-3.52,2.26s-1.26-3.79-3.25-3.94c0,0,2.95-4.25.84-7.2s-13.4-2.68-17.76,12.25c0,0-.57-4.52-2.41-4.52s-8.61,2.45-6.78,9.49,8.19,9.15,10.3,10a3.64,3.64,0,0,1,.57,2.95c-.23.88-5.32,16.69-1.07,31.31,3.18,10.91,13.4,20.4,13.4,20.4a43.17,43.17,0,0,0,29.86,12,44,44,0,0,0,24.35-80.23Z"/></clipPath></defs><path class="b" d="M84.75,133.44a44.86,44.86,0,0,1-44.63-45c0-24.8,20-45,44.63-45s44.63,20.21,44.63,45a44.86,44.86,0,0,1-44.63,45Zm0-87.77a42.76,42.76,0,1,0,42.37,42.76A42.62,42.62,0,0,0,84.75,45.67Z"/><g class="c"><path class="d" d="M135.2,153.73s.73,9.84-2,11.83c0,0-.57,3.94-4.36,4.06,0,0-.84,2.26-4.78,1.11s-7.31-12.67-7.31-12.67,11.9-10.11,18.41-4.33Z"/><path class="e" d="M100.1,104.43s31.62,5.09,35.1,49.3c0,0-5.89,3.75-12.06,4,0,0,.54-34-23-53.32Z"/><path class="f" d="M131.22,134.25a33,33,0,0,1-11.06,2.87l.57,2.18a53.12,53.12,0,0,0,11.18-3.1l-.69-2Zm-12.63-2.18c.23.73.5,1.42.69,2.14a38.74,38.74,0,0,0,10.87-2.72c-.31-.69-.57-1.38-.88-2a37.08,37.08,0,0,1-10.68,2.6Zm16.61,21.67a83.41,83.41,0,0,0-1.61-11.18,28.9,28.9,0,0,1-11.41,4,71,71,0,0,1,1,11.22c6.12-.27,12-4,12-4Z"/><circle class="d" cx="67.48" cy="70.93" r="6.78"/><circle class="d" cx="67.48" cy="70.93" r="6.78"/><path class="d" d="M60.71,70.93a3.29,3.29,0,0,0,0,.61,6.83,6.83,0,0,0,1.53-.84c3.22-2.07,3.29-4.52,2.6-6A6.89,6.89,0,0,0,60.71,70.93Z"/><circle class="d" cx="64" cy="70.93" r="3.29"/><path class="g" d="M64,67.68a1.3,1.3,0,0,0-.38,0,3.47,3.47,0,0,1,0,6.51c.11,0,.27,0,.38,0a3.29,3.29,0,0,0,0-6.58Z"/><path class="d" d="M63.58,67.72c-.11,0-.19,0-.31,0-1.42,0-2.56,1.45-2.56,3.29A3.27,3.27,0,0,1,63.58,67.72Zm-2.87,3.22c0,1.8,1.15,3.29,2.56,3.29a.84.84,0,0,0,.31,0A3.27,3.27,0,0,1,60.71,70.93Z"/><circle class="d" cx="107.18" cy="70.93" r="6.78"/><circle class="d" cx="107.18" cy="70.93" r="6.78"/><circle class="d" cx="110.66" cy="70.93" r="3.29"/><path class="g" d="M108.79,70.93A3.1,3.1,0,0,1,111,67.68c-.11,0-.27,0-.38,0a3.29,3.29,0,1,0,0,6.58,1.3,1.3,0,0,0,.38,0A3.1,3.1,0,0,1,108.79,70.93Z"/><path class="d" d="M114,70.93c0-1.8-1.15-3.29-2.56-3.29a.84.84,0,0,0-.31,0A3.33,3.33,0,0,1,114,70.93Zm-2.87,3.25c.11,0,.19,0,.31,0,1.42,0,2.56-1.45,2.56-3.29a3.27,3.27,0,0,1-2.87,3.25ZM48.54,75.3s6.47.84,5.63-5.63c0,0,2.26,3.52,7.31.27s2.37-7.46,1-7.58-3.37-1.68-8.31,3.37l-2.79-6.47L54.58,55s.46,6.09,5.13,4.36,1.19-12.1-3-12.1l-7.58,4.36s1.42-3.94,7.58-7.16c0,0,2.37-1.42,1-4.94s-14.78-1-16.88,16.15A7,7,0,0,1,39,50c.54-3.52-6.89-2.53-5.47,5.05s8.73,9.15,8.73,9.15a10.29,10.29,0,0,1,.69,8.57S45.74,76.25,48.54,75.3Zm12.94-5.36c5.05-3.22,2.37-7.46,1-7.58-.88-.08-2-.69-3.79,0l1.65,3.41S60,70.63,54.55,69.4a2.22,2.22,0,0,1-.19.5C55,70.63,57.23,72.66,61.47,69.94Zm-7.27.19c-.84,1.49-3.75,4.4-10.79.8a10.92,10.92,0,0,1-.5,1.84s2.79,3.52,5.63,2.53C48.54,75.3,54.7,76.1,54.2,70.13ZM54.58,55s.46,6.09,5.13,4.36c1.91-.69,2.45-2.87,2.14-5.17-1.19,1.22-4.78,4.29-6.2-2.22l-6.43,7.5-5.09,2.95,6.35-1.61,3.71,4.82-2.79-6.47Zm-4.4-5.21a18.21,18.21,0,0,1,6.55-5.36s2.37-1.42,1-4.94c0-.08,0-.11-.08-.19a6.11,6.11,0,0,1-2.26,3.22c-2.6,1.8-11.9,8.27-9,18A12.15,12.15,0,0,1,50.18,49.84Zm-9.49,5.78A6.76,6.76,0,0,1,39,50c.23-1.38-.8-2.07-2-1.91-.27,3.75.27,11.41,7.69,13.59C44.67,61.67,41.88,60.37,40.69,55.62Z"/><path class="e" d="M42.91,72.77l5.63,2.53s-5.05,27.83,21.36,29c0,0,.19,17.91-16.12,17.61C53.78,121.88,32.23,104.73,42.91,72.77Z"/><path class="f" d="M49.65,90.42c-.08-.27-.15-.5-.23-.77h0A20.43,20.43,0,0,1,40,91.72l.11,1.84A21.51,21.51,0,0,0,50,91.37v0a6.6,6.6,0,0,1-.27-.8Zm1.8,4c-.11-.23-.27-.46-.38-.69h0A26.28,26.28,0,0,1,40.34,96c.08.69.19,1.38.31,2a22.26,22.26,0,0,0,11.22-2.91v0c-.15-.23-.27-.46-.42-.69v0ZM42.91,72.77a54.15,54.15,0,0,0-2.68,11.64c2.68.5,5.36.57,8-1.15a33.67,33.67,0,0,1,.31-8Z"/><path class="e" d="M51.1,144.16l34.45,44.4s1.34.5,1.91-.19V144.16Zm72.46,0-34.45,44.4s-1.34.5-1.91-.19V144.16ZM103.2,103.55H71.5c-33.76,14.81-25.91,70.74-25.91,70.74h42V148.72l2.33,25.57h39.2s7.89-55.93-25.88-70.74Z"/><path class="d" d="M116.79,158.09s3.37,11.52,7.31,12.67,4.78-1.11,4.78-1.11a4.2,4.2,0,0,0,2.56-.92,126,126,0,0,0,0-16.69C124.94,151.17,116.79,158.09,116.79,158.09Z"/><path class="h" d="M131.64,155.57c-.46-12-2.87-27.45-11-39-9.68-10.34-20.56-12.1-20.56-12.1,23.58,19.29,23,53.32,23,53.32A24.92,24.92,0,0,0,131.64,155.57Z"/><path class="f" d="M46.93,138.38c-.11.5-.23,1-.31,1.53,9.34-3.45,24.08-5.67,40.69-5.67s31.39,2.22,40.69,5.67c-.11-.5-.19-1-.31-1.53-9.34-3.37-24-5.55-40.38-5.55S56.27,135,46.93,138.38Zm1.88-7.08c-.15.46-.27.92-.42,1.38,9.38-3.1,23.35-5.05,39-5.05s29.59,2,39,5.05c-.15-.46-.27-.92-.42-1.38-9.38-3-23.16-4.9-38.55-4.9S58.14,128.31,48.8,131.3ZM61.9,109.67c-7.23,9.3-6.43,20.67-6.43,20.67l2-.88c-.61-9.88,3.9-17.72,6.74-21.63C63.39,108.41,62.62,109,61.9,109.67Zm48.61-1.84c2.83,3.9,7.35,11.71,6.74,21.63l2,.88s.77-11.33-6.43-20.67c-.73-.65-1.49-1.26-2.26-1.84Zm-23,40.88,2.33,25.57h39.2a117.11,117.11,0,0,0-1.19-35l-2-.65c3.29,9,1.76,33.26,1.76,33.26H92l-3.37-37.7H85.9l-.34,37.7H47.43a139.44,139.44,0,0,1,1-33.19l-1.61.46a116.42,116.42,0,0,0-1.19,35.1h42V148.72Z"/><path class="d" d="M104.88,102.36A28.11,28.11,0,0,1,87,108.48c-13.17,0-17.26-6.12-17.26-6.12L67.45,59.41h39.73l-2.3,42.95Zm0,0A28.11,28.11,0,0,1,87,108.48c-13.17,0-17.26-6.12-17.26-6.12L67.45,59.41h39.73l-2.3,42.95Zm0,0A28.11,28.11,0,0,1,87,108.48c-13.17,0-17.26-6.12-17.26-6.12L67.45,59.41h39.73l-2.3,42.95Z"/><path class="i" d="M92.37,66.76l1-1.26s3.56-.19,9.07,2.76c0,0-4-4.9-10-3.25l.19-1.07L91,66.68a19.48,19.48,0,0,1,0,6.39H83.79a19.48,19.48,0,0,1,0-6.39l-1.68-2.76L82.26,65c-6-1.65-10,3.25-10,3.25,5.47-2.95,9.07-2.76,9.07-2.76l1,1.26c-1.91,3.83-6.43,4.13-6.43,4.13,4.75.5,6.47-2.45,6.47-2.45a23.84,23.84,0,0,0,.23,5.4l4.75,3.37,0,0,0,0,4.75-3.37a23.84,23.84,0,0,0,.23-5.4s1.72,2.95,6.47,2.45c-.11,0-4.63-.31-6.55-4.13Z"/><ellipse class="e" cx="87.31" cy="80.66" rx="6.51" ry="3.9"/><path class="f" d="M87.31,84.75a9.65,9.65,0,0,0,3.94-1,5.38,5.38,0,0,0-3.94-1.38,5.62,5.62,0,0,0-3.94,1.38A9.82,9.82,0,0,0,87.31,84.75Z"/><path class="j" d="M87.31,76.75c-3.6,0-6.51,1.76-6.51,3.9a1.06,1.06,0,0,0,0,.34h13c0-.11,0-.23,0-.34,0-2.14-2.91-3.9-6.55-3.9Z"/><path class="k" d="M87.31,87.09a9.57,9.57,0,0,1-3.6-.65,4.52,4.52,0,0,0,3.6,1.76,4.57,4.57,0,0,0,3.6-1.76A9.57,9.57,0,0,1,87.31,87.09Zm0,11.64a17,17,0,0,1-6.12-1.11,7.69,7.69,0,0,0,6.12,3,7.8,7.8,0,0,0,6.12-3,16.8,16.8,0,0,1-6.12,1.11Z"/><path class="l" d="M67.83,66.49h39l.38-7H67.45Z"/><path class="e" d="M107.29,59.41l3.48-20.17S105.53,28.9,87.43,28.9c-22,0-23.58,10.34-23.58,10.34l3.52,20.17Z"/><path class="f" d="M65.88,50.76l1.49,8.65h39.92l1.49-8.65Z"/><path class="e" d="M113.3,64.23H61.36l-1.61-4.82h55.2Z"/><circle class="e" cx="87.31" cy="53.55" r="6.43"/><path class="f" d="M87.31,59.18a5.63,5.63,0,1,1,5.63-5.63A5.64,5.64,0,0,1,87.31,59.18Zm0-10.53a4.9,4.9,0,1,0,4.9,4.9,4.88,4.88,0,0,0-4.9-4.9Zm0,9a4.06,4.06,0,1,1,4.06-4.06A4.06,4.06,0,0,1,87.31,57.61Zm0-7.62a3.52,3.52,0,1,0,3.52,3.52A3.51,3.51,0,0,0,87.31,50Zm1,2.11,1.84-1.34-1.42,1.8L91,52l-2,1.19,2.26.27L89,53.82l2.07,1.07-2.22-.46,1.49,1.72-1.91-1.22.77,2.14-1.34-1.84,0,2.3-.57-2.22-.88,2.11.23-2.26-1.57,1.65,1-2-2.07,1,1.72-1.53-2.3.15,2.14-.8-2.18-.69,2.3,0-1.8-1.42,2.11.84-1.15-2,1.65,1.57-.38-2.26,1,2.07.46-2.22.19,2.3L89,49.92Z"/><path class="e" d="M88.54,53.55a1.22,1.22,0,1,1-1.22-1.22A1.21,1.21,0,0,1,88.54,53.55Z"/><path class="f" d="M87,108.52c-13.17,0-17.26-6.12-17.26-6.12l.46,8.73s3.94,6,16.8,6a27.27,27.27,0,0,0,17.34-6l.5-8.77A28.27,28.27,0,0,1,87,108.52Z"/><path class="e" d="M87.31,116.94a16.62,16.62,0,0,0,.5-4.17,16.17,16.17,0,0,0-.5-4.17,16.62,16.62,0,0,0-.5,4.17,16.39,16.39,0,0,0,.5,4.17Z"/><circle class="h" cx="90.45" cy="113.04" r="1.19"/><circle class="j" cx="90.18" cy="112.77" r="1.19"/><path class="m" d="M91.6,124.79H83.06a2.47,2.47,0,0,0-2.45,2.45v6.09a2.47,2.47,0,0,0,2.45,2.45H91.6A2.47,2.47,0,0,0,94,133.33v-6.09A2.44,2.44,0,0,0,91.6,124.79Zm-.65,3.41v4.17a.47.47,0,0,1-.46.46H84.17a.47.47,0,0,1-.46-.46V128.2a.47.47,0,0,1,.46-.46h6.32a.47.47,0,0,1,.46.46Z"/><path class="k" d="M82.6,73.84l4.71,3.33,0,0,0,0,4.71-3.33Z"/><path class="n" d="M87.31,76.45S83.33,71.7,74,74L59.87,87.93a19,19,0,0,0,13.05,2.76C80.88,89.65,87.39,81.15,87.31,76.45Zm0,0s4-4.75,13.32-2.41,14.12,13.9,14.12,13.9a19,19,0,0,1-13.05,2.76c-8-1-14.43-9.53-14.39-14.24Z"/><path class="f" d="M106.68,117h.84l-1.49,1.8-1.45-1.8h.84v-.8h-3.14v.8h1.22l2.07,2.56v1.61h-1.22v.8h3.29v-.8h-1.22v-1.61l2.07-2.56h1.22v-.8h-3.14Z"/></g></svg>