<svg xmlns="http://www.w3.org/2000/svg" viewBox="0 0 256 256"><polygon points="62.46 116.62 62.46 139.38 79.48 128 62.46 116.62"/><polygon points="121.2 100.09 121.2 68.37 67.9 103.9 91.71 119.82 121.2 100.09"/><polygon points="188.1 103.9 134.8 68.37 134.8 100.09 164.29 119.82 188.1 103.9"/><polygon points="67.9 152.11 121.2 187.63 121.2 155.91 91.71 136.19 67.9 152.11"/><polygon points="134.8 155.91 134.8 187.63 188.1 152.11 164.29 136.19 134.8 155.91"/><polygon points="128 111.91 103.95 128 128 144.09 152.06 128 128 111.91"/><path d="M128,0A128,128,0,1,0,256,128,128,128,0,0,0,128,0Zm79.14,152.12a6.69,6.69,0,0,1-.06.89,1.85,1.85,0,0,1-.05.29c0,.19-.07.38-.12.54a2.94,2.94,0,0,1-.11.33c0,.11-.11.34-.17.5s-.1.22-.15.33-.15.3-.23.45-.13.21-.19.31a4.47,4.47,0,0,1-.29.41l-.23.3c-.08.1-.22.25-.34.37l-.27.27-.38.32-.31.23-.11.08L131.75,206a6.79,6.79,0,0,1-7.55,0L51.89,157.77l-.11-.08-.31-.23-.38-.32-.27-.27-.34-.37a2.39,2.39,0,0,1-.23-.3l-.29-.41c-.09-.14-.14-.21-.19-.31l-.23-.45-.15-.33c0-.11-.12-.34-.17-.5s-.08-.22-.11-.33-.08-.38-.12-.54a2.77,2.77,0,0,0-.05-.29,6.73,6.73,0,0,1-.06-.89V103.89a6.61,6.61,0,0,1,.06-.89,2,2,0,0,1,.05-.3c0-.19.07-.38.12-.57a2.94,2.94,0,0,1,.11-.33c0-.11.11-.34.17-.5a3.6,3.6,0,0,1,.15-.34c.05-.11.15-.3.23-.45l.19-.32c.07-.11.18-.28.29-.41l.23-.3.34-.37.27-.27.38-.32.31-.23.11-.08L124.23,50a6.8,6.8,0,0,1,7.58,0l72.34,48.23.11.08.31.23c.1.08.27.21.38.32l.27.27c.09.09.23.24.34.37s.16.19.23.3l.29.41a3.4,3.4,0,0,1,.19.32l.23.45a3.2,3.2,0,0,1,.15.34c0,.11.12.33.17.5s.08.22.11.33.08.38.12.57a2,2,0,0,0,.05.3,6.57,6.57,0,0,1,.06.89Z"/><polygon points="193.54 139.38 193.54 116.62 176.53 128 193.54 139.38"/></svg>