<svg xmlns="http://www.w3.org/2000/svg" viewBox="0 0 256 256"><defs><style>.a{fill:#161614;}</style></defs><path class="a" d="M127.92,3A127.84,127.84,0,0,0,87.5,252.15c6.39,1.18,8.74-2.78,8.74-6.15,0-3-.12-13.12-.17-23.8C60.5,229.93,53,207.11,53,207.11c-5.81-14.78-14.19-18.71-14.19-18.71-11.6-7.93.88-7.77.88-7.77,12.81.9,19.58,13.12,19.58,13.12,11.4,19.6,29.9,14,37.2,10.68,1.15-8.26,4.46-13.9,8.12-17.1-28.39-3.24-58.25-14.19-58.25-63.18A49.48,49.48,0,0,1,59.51,89.89c-1.33-3.22-5.7-16.22,1.24-33.83,0,0,10.74-3.44,35.17,13.1a121.26,121.26,0,0,1,64,0c24.4-16.54,35.12-13.1,35.12-13.1,7,17.61,2.58,30.61,1.25,33.83a49.38,49.38,0,0,1,13.15,34.32c0,49.1-29.9,59.92-58.38,63.08,4.58,4,8.67,11.75,8.67,23.67,0,17.11-.15,30.87-.15,35.09,0,3.41,2.3,7.39,8.78,6.13A127.84,127.84,0,0,0,127.92,3ZM48,185.11c-.28.64-1.28.83-2.19.39s-1.45-1.28-1.15-1.92a1.62,1.62,0,0,1,2.2-.4C47.74,183.62,48.28,184.47,48,185.11Zm6.29,5.61c-.61.57-1.8.3-2.61-.59s-1-2.09-.38-2.66,1.79-.3,2.63.59a2,2,0,0,1,.36,2.7Zm4.31,7.18c-.78.54-2.07,0-2.86-1.1s-.78-2.5,0-3,2.06-.06,2.86,1.07S59.36,197.35,58.56,197.9Zm7.3,8.31c-.7.77-2.2.57-3.29-.49s-1.43-2.5-.73-3.27,2.21-.56,3.32.49,1.44,2.51.69,3.27ZM75.29,209c-.31,1-1.75,1.46-3.2,1s-2.4-1.61-2.1-2.63,1.75-1.48,3.21-1S75.58,208,75.28,209ZM86,210.21c0,1.06-1.19,1.93-2.72,2s-2.77-.82-2.79-1.86,1.2-1.93,2.73-2S86,209.16,86,210.21Zm10.55-.4c.18,1-.88,2.09-2.39,2.37s-2.86-.36-3-1.39.89-2.11,2.38-2.39,2.91.34,3.1,1.41Z"/></svg>